<?xml version="1.0" standalone="no"?>
<!DOCTYPE svg PUBLIC "-//W3C//DTD SVG 20010904//EN"
 "http://www.w3.org/TR/2001/REC-SVG-20010904/DTD/svg10.dtd">
<svg version="1.0" xmlns="http://www.w3.org/2000/svg"
 width="1200.000000pt" height="1200.000000pt" viewBox="0 0 1200.000000 1200.000000"
 preserveAspectRatio="xMidYMid meet">
<metadata>
Created by potrace 1.14, written by Peter Selinger 2001-2017
</metadata>
<g transform="translate(0.000000,1200.000000) scale(0.100000,-0.100000)"
fill="#000000" stroke="none">
<path d="M2195 11992 c16 -11 15 -29 0 -29 -8 0 -11 5 -8 11 4 6 -1 5 -10 -2
-9 -8 -22 -10 -29 -6 -8 5 -8 1 2 -11 8 -10 10 -16 3 -12 -13 8 -45 -1 -40
-12 2 -3 -10 -19 -26 -36 -24 -25 -27 -26 -13 -5 9 13 16 29 16 35 -1 5 -8 -2
-16 -17 -8 -16 -19 -28 -24 -28 -5 0 -6 -7 -3 -17 5 -12 3 -14 -8 -8 -11 7
-12 6 -2 -6 18 -22 16 -31 -9 -43 l-23 -12 -2 -5784 c-2 -3740 1 -5780 7
-5770 6 9 10 10 10 3 0 -6 7 -19 17 -28 11 -11 13 -19 5 -23 -7 -5 -5 -14 5
-27 13 -17 15 -17 9 -2 -3 11 -2 16 4 12 6 -3 10 -15 10 -25 0 -10 5 -22 12
-26 6 -4 8 -3 4 4 -3 6 -3 13 2 16 5 3 9 -1 10 -9 1 -8 3 -21 4 -29 1 -8 7
-12 15 -9 8 3 13 -2 14 -13 0 -18 1 -17 9 1 l9 20 0 -20 c1 -17 3 -17 11 -5 9
13 10 13 10 0 0 -10 3 -11 8 -4 5 9 11 8 20 -2 10 -11 10 -14 0 -14 -9 0 -9
-3 2 -10 8 -5 46 -9 85 -10 65 0 229 0 258 1 6 0 453 0 992 0 539 0 987 0 995
0 8 0 44 0 80 0 36 0 74 0 85 0 18 0 776 0 800 0 6 0 39 0 75 0 36 0 74 0 85
0 32 0 2069 1 2080 0 20 0 140 0 160 0 11 0 193 0 405 0 212 0 390 0 395 0 6
1 39 0 75 0 36 0 72 0 80 0 8 0 44 0 80 0 36 0 72 0 80 0 8 0 44 0 80 0 36 0
72 0 80 0 8 0 114 0 235 -1 358 -2 387 -1 380 10 -4 6 1 7 11 3 14 -5 16 -2
12 14 -5 20 14 25 40 9 7 -4 12 -2 12 4 0 7 7 9 16 6 9 -3 12 -2 9 5 -7 10 42
59 58 59 5 0 6 4 3 9 -3 5 2 12 11 15 15 6 15 8 3 16 -13 9 -13 10 0 10 13 0
13 1 0 10 -8 5 -12 10 -7 11 4 1 10 2 15 3 4 1 13 5 20 9 9 7 12 1173 12 5777
0 3172 -3 5776 -6 5785 -5 13 -8 14 -15 3 -7 -10 -9 -9 -9 5 0 12 -4 16 -12
11 -9 -5 -9 -2 1 9 10 13 10 17 1 17 -9 0 -9 4 1 17 10 11 10 14 1 9 -8 -4
-12 -1 -12 10 0 13 -3 14 -14 5 -12 -10 -13 -8 -9 8 3 13 1 21 -6 21 -7 0 -9
-5 -5 -12 4 -7 3 -8 -5 -4 -9 6 -9 11 0 22 10 12 9 13 -5 8 -9 -4 -16 -1 -16
6 0 7 -7 10 -16 6 -14 -5 -15 -4 -4 9 7 9 10 18 6 22 -3 3 -6 1 -6 -7 0 -10
-3 -10 -15 0 -12 10 -15 10 -15 -1 0 -11 -2 -11 -10 1 -7 11 -10 12 -10 2 0
-10 -3 -10 -15 2 -18 17 -20 30 -3 20 7 -4 8 -3 4 4 -5 9 -947 12 -3814 12
-2094 0 -3802 -4 -3797 -8z m7420 -341 c-3 -6 4 -15 16 -22 17 -9 19 -13 8
-20 -12 -8 -12 -10 0 -18 12 -8 12 -12 2 -25 -9 -11 -10 -16 -2 -16 6 0 11 -5
11 -11 0 -5 -6 -7 -12 -3 -9 5 -9 2 1 -9 11 -14 11 -17 0 -18 -12 0 -12 -1 0
-6 11 -5 11 -7 0 -15 -12 -8 -12 -10 0 -15 11 -5 11 -7 0 -14 -10 -6 -11 -9
-1 -9 6 0 12 -5 12 -11 0 -5 -5 -7 -10 -4 -13 8 -8 -17 5 -27 6 -5 4 -12 -5
-18 -13 -9 -13 -10 0 -10 13 0 13 -1 0 -10 -13 -9 -13 -10 0 -10 13 0 13 -1 0
-10 -13 -9 -13 -10 0 -10 13 0 13 -1 0 -11 -12 -9 -13 -12 -1 -16 11 -5 11 -7
0 -14 -10 -6 -11 -9 -1 -9 6 0 12 -5 12 -11 0 -5 -5 -7 -10 -4 -13 8 -8 -17 5
-27 6 -5 4 -12 -5 -18 -13 -9 -13 -10 0 -10 13 0 13 -1 0 -10 -13 -9 -13 -11
-1 -19 12 -8 12 -12 2 -25 -9 -11 -10 -16 -2 -16 6 0 11 -5 11 -11 0 -5 -6 -7
-12 -3 -9 5 -9 2 1 -9 11 -14 11 -17 0 -18 -12 0 -12 -1 0 -6 11 -5 11 -7 0
-15 -12 -8 -12 -10 0 -15 11 -5 11 -7 0 -14 -10 -6 -11 -9 -1 -9 6 0 12 -5 12
-11 0 -5 -5 -7 -10 -4 -13 8 -8 -17 5 -27 6 -5 4 -12 -5 -18 -13 -9 -13 -10 0
-10 13 0 13 -1 0 -10 -13 -9 -13 -11 -1 -19 12 -8 12 -12 2 -25 -9 -11 -10
-16 -2 -16 6 0 11 -5 11 -11 0 -5 -6 -7 -12 -3 -9 5 -9 2 1 -9 11 -14 11 -17
0 -18 -12 0 -12 -1 0 -6 11 -5 11 -7 0 -15 -12 -8 -12 -10 0 -15 11 -5 11 -7
0 -14 -10 -6 -11 -9 -1 -9 6 0 12 -5 12 -11 0 -5 -5 -7 -10 -4 -13 8 -8 -17 5
-27 6 -5 4 -12 -5 -18 -13 -9 -13 -10 0 -10 13 0 13 -1 0 -10 -13 -9 -13 -10
0 -10 13 0 13 -1 0 -10 -13 -9 -13 -10 0 -10 13 0 13 -1 0 -11 -12 -9 -13 -12
-1 -16 11 -5 11 -7 0 -14 -10 -6 -11 -9 -1 -9 6 0 12 -5 12 -11 0 -5 -5 -7
-10 -4 -13 8 -8 -17 5 -27 6 -5 4 -12 -5 -18 -13 -9 -13 -10 0 -10 13 0 13 -1
0 -10 -13 -9 -13 -11 -1 -19 12 -8 12 -12 2 -25 -9 -11 -10 -16 -2 -16 6 0 11
-5 11 -11 0 -5 -6 -7 -12 -3 -9 5 -9 2 1 -9 11 -14 11 -17 0 -18 -12 0 -12 -1
0 -6 11 -5 11 -7 0 -15 -12 -8 -12 -10 0 -15 11 -5 11 -7 0 -14 -10 -6 -11 -9
-1 -9 6 0 12 -5 12 -11 0 -5 -5 -7 -10 -4 -13 8 -8 -17 5 -27 6 -5 4 -12 -5
-18 -13 -9 -13 -10 0 -10 13 0 13 -1 0 -10 -13 -9 -13 -11 -1 -19 12 -8 12
-12 2 -25 -9 -11 -10 -16 -2 -16 6 0 11 -5 11 -11 0 -5 -6 -7 -12 -3 -9 5 -9
2 1 -9 11 -14 11 -17 0 -18 -12 0 -12 -1 0 -6 11 -5 11 -7 0 -15 -12 -8 -12
-10 0 -15 11 -5 11 -7 0 -14 -10 -6 -11 -9 -1 -9 6 0 12 -5 12 -11 0 -5 -5 -7
-10 -4 -13 8 -8 -17 5 -27 6 -5 4 -12 -5 -18 -13 -9 -13 -10 0 -10 13 0 13 -1
0 -10 -13 -9 -13 -10 0 -10 13 0 13 -1 0 -10 -13 -9 -13 -10 0 -10 13 0 13 -1
0 -11 -12 -9 -13 -12 -1 -16 11 -5 11 -7 0 -14 -10 -6 -11 -9 -1 -9 6 0 12 -5
12 -11 0 -5 -5 -7 -10 -4 -13 8 -8 -17 5 -27 6 -5 4 -12 -5 -18 -13 -9 -13
-10 0 -10 13 0 13 -1 0 -10 -13 -9 -13 -11 -1 -19 12 -8 12 -12 2 -25 -9 -11
-10 -16 -2 -16 6 0 11 -5 11 -11 0 -5 -6 -7 -12 -3 -9 5 -9 2 1 -9 11 -14 11
-17 0 -18 -12 0 -12 -1 0 -6 11 -5 11 -7 0 -15 -12 -8 -12 -10 0 -15 11 -5 11
-7 0 -14 -10 -6 -11 -9 -1 -9 6 0 12 -5 12 -11 0 -5 -5 -7 -10 -4 -13 8 -8
-17 5 -27 6 -5 4 -12 -5 -18 -13 -9 -13 -10 0 -10 13 0 13 -1 0 -10 -13 -9
-13 -11 -1 -19 12 -8 12 -12 2 -25 -9 -11 -10 -16 -2 -16 6 0 11 -5 11 -11 0
-5 -6 -7 -12 -3 -9 5 -9 2 1 -9 11 -14 11 -17 0 -18 -12 0 -12 -1 0 -6 11 -5
11 -7 0 -15 -12 -8 -12 -10 0 -15 11 -5 11 -7 0 -14 -10 -6 -11 -9 -1 -9 6 0
12 -5 12 -11 0 -5 -5 -7 -10 -4 -13 8 -8 -17 5 -27 6 -5 4 -12 -5 -18 -13 -9
-13 -10 0 -10 13 0 13 -1 0 -10 -13 -9 -13 -10 0 -10 13 0 13 -1 0 -10 -13 -9
-13 -10 0 -10 13 0 13 -1 0 -11 -12 -9 -13 -12 -1 -16 11 -5 11 -7 0 -14 -10
-6 -11 -9 -1 -9 6 0 12 -5 12 -11 0 -5 -5 -7 -10 -4 -13 8 -8 -17 5 -27 6 -5
4 -12 -5 -18 -13 -9 -13 -10 0 -10 13 0 13 -1 0 -10 -13 -9 -13 -11 -1 -19 12
-8 12 -12 2 -25 -9 -11 -10 -16 -2 -16 6 0 11 -5 11 -11 0 -5 -6 -7 -12 -3 -9
5 -9 2 1 -9 11 -14 11 -17 0 -18 -12 0 -12 -1 0 -6 11 -5 11 -7 0 -15 -12 -8
-12 -10 0 -15 11 -5 11 -7 0 -14 -10 -6 -11 -9 -1 -9 6 0 12 -5 12 -11 0 -5
-5 -7 -10 -4 -13 8 -8 -17 5 -27 6 -5 4 -12 -5 -18 -13 -9 -13 -10 0 -10 13 0
13 -1 0 -10 -13 -9 -13 -11 -1 -19 12 -8 12 -12 2 -25 -9 -11 -10 -16 -2 -16
6 0 11 -5 11 -11 0 -5 -6 -7 -12 -3 -9 5 -9 2 1 -9 11 -14 11 -17 0 -18 -12 0
-12 -1 0 -6 11 -5 11 -7 0 -15 -12 -8 -12 -10 0 -15 11 -5 11 -7 0 -14 -10 -6
-11 -9 -1 -9 6 0 12 -5 12 -11 0 -5 -5 -7 -10 -4 -13 8 -8 -17 5 -27 6 -5 4
-12 -5 -18 -13 -9 -13 -10 0 -10 13 0 13 -1 0 -10 -13 -9 -13 -10 0 -10 13 0
13 -1 0 -10 -13 -9 -13 -10 0 -10 13 0 13 -1 0 -11 -12 -9 -13 -12 -1 -16 11
-5 11 -7 0 -14 -10 -6 -11 -9 -1 -9 6 0 12 -5 12 -11 0 -5 -5 -7 -10 -4 -13 8
-8 -17 5 -27 6 -5 4 -12 -5 -18 -13 -9 -13 -10 0 -10 13 0 13 -1 0 -10 -13 -9
-13 -11 -1 -19 12 -8 12 -12 2 -25 -9 -11 -10 -16 -2 -16 6 0 11 -5 11 -11 0
-5 -6 -7 -12 -3 -9 5 -9 2 1 -9 11 -14 11 -17 0 -18 -12 0 -12 -1 0 -6 11 -5
11 -7 0 -15 -12 -8 -12 -10 0 -15 11 -5 11 -7 0 -14 -10 -6 -11 -9 -1 -9 6 0
12 -5 12 -11 0 -5 -5 -7 -10 -4 -13 8 -8 -17 5 -27 6 -5 4 -12 -5 -18 -13 -9
-13 -10 0 -10 13 0 13 -1 0 -10 -13 -9 -13 -11 -1 -19 12 -8 12 -12 2 -25 -9
-11 -10 -16 -2 -16 6 0 11 -5 11 -11 0 -5 -6 -7 -12 -3 -9 5 -9 2 1 -9 11 -14
11 -17 0 -18 -12 0 -12 -1 0 -6 11 -5 11 -7 0 -15 -12 -8 -12 -10 0 -15 11 -5
11 -7 0 -14 -10 -6 -11 -9 -1 -9 6 0 12 -5 12 -11 0 -5 -5 -7 -10 -4 -13 8 -8
-17 5 -27 6 -5 4 -12 -5 -18 -13 -9 -13 -10 0 -10 13 0 13 -1 0 -10 -13 -9
-13 -10 0 -10 13 0 13 -1 0 -10 -13 -9 -13 -10 0 -10 13 0 13 -1 0 -11 -12 -9
-13 -12 -1 -16 11 -5 11 -7 0 -14 -10 -6 -11 -9 -1 -9 6 0 12 -5 12 -11 0 -5
-5 -7 -10 -4 -13 8 -8 -17 5 -27 6 -5 4 -12 -5 -18 -13 -9 -13 -10 0 -10 13 0
13 -1 0 -10 -13 -9 -13 -11 -1 -19 12 -8 12 -12 2 -25 -9 -11 -10 -16 -2 -16
6 0 11 -5 11 -11 0 -5 -6 -7 -12 -3 -9 5 -9 2 1 -9 11 -14 11 -17 0 -18 -12 0
-12 -1 0 -6 11 -5 11 -7 0 -15 -12 -8 -12 -10 0 -15 11 -5 11 -7 0 -14 -10 -6
-11 -9 -1 -9 6 0 12 -5 12 -11 0 -5 -5 -7 -10 -4 -13 8 -8 -17 5 -27 6 -5 4
-12 -5 -18 -13 -9 -13 -10 0 -10 13 0 13 -1 0 -10 -13 -9 -13 -11 -1 -19 12
-8 12 -12 2 -25 -9 -11 -10 -16 -2 -16 6 0 11 -5 11 -11 0 -5 -6 -7 -12 -3 -9
5 -9 2 1 -9 11 -14 11 -17 0 -18 -12 0 -12 -1 0 -6 11 -5 11 -7 0 -15 -12 -8
-12 -10 0 -15 11 -5 11 -7 0 -14 -10 -6 -11 -9 -1 -9 6 0 12 -5 12 -11 0 -5
-5 -7 -10 -4 -13 8 -8 -17 5 -27 6 -5 4 -12 -5 -18 -13 -9 -13 -10 0 -10 13 0
13 -1 0 -10 -13 -9 -13 -10 0 -10 13 0 13 -1 0 -10 -13 -9 -13 -10 0 -10 13 0
13 -1 0 -11 -12 -9 -13 -12 -1 -16 11 -5 11 -7 0 -14 -10 -6 -11 -9 -1 -9 6 0
12 -5 12 -11 0 -5 -5 -7 -10 -4 -13 8 -8 -17 5 -27 6 -5 4 -12 -5 -18 -13 -9
-13 -10 0 -10 13 0 13 -1 0 -10 -13 -9 -13 -11 -1 -19 12 -8 12 -12 2 -25 -9
-11 -10 -16 -2 -16 6 0 11 -5 11 -11 0 -5 -6 -7 -12 -3 -9 5 -9 2 1 -9 11 -14
11 -17 0 -18 -12 0 -12 -1 0 -6 11 -5 11 -7 0 -15 -12 -8 -12 -10 0 -15 11 -5
11 -7 0 -14 -10 -6 -11 -9 -1 -9 6 0 12 -5 12 -11 0 -5 -5 -7 -10 -4 -13 8 -8
-17 5 -27 6 -5 4 -12 -5 -18 -13 -9 -13 -10 0 -10 13 0 13 -1 0 -10 -13 -9
-13 -11 -1 -19 12 -8 12 -12 2 -25 -9 -11 -10 -16 -2 -16 6 0 11 -5 11 -11 0
-5 -6 -7 -12 -3 -9 5 -9 2 1 -9 11 -14 11 -17 0 -18 -12 0 -12 -1 0 -6 11 -5
11 -7 0 -15 -12 -8 -12 -10 0 -15 11 -5 11 -7 0 -14 -10 -6 -11 -9 -1 -9 6 0
12 -5 12 -11 0 -5 -5 -7 -10 -4 -13 8 -8 -17 5 -27 6 -5 4 -12 -5 -18 -13 -9
-13 -10 0 -10 13 0 13 -1 0 -10 -13 -9 -13 -10 0 -10 13 0 13 -1 0 -10 -13 -9
-13 -10 0 -10 13 0 13 -1 0 -11 -12 -9 -13 -12 -1 -16 11 -5 11 -7 0 -14 -10
-6 -11 -9 -1 -9 6 0 12 -5 12 -11 0 -5 -5 -7 -10 -4 -13 8 -8 -17 5 -27 6 -5
4 -12 -5 -18 -13 -9 -13 -10 0 -10 13 0 13 -1 0 -10 -13 -9 -13 -11 -1 -19 12
-8 12 -12 2 -25 -9 -11 -10 -16 -2 -16 6 0 11 -5 11 -11 0 -5 -6 -7 -12 -3 -9
5 -9 2 1 -9 11 -14 11 -17 0 -18 -12 0 -12 -1 0 -6 11 -5 11 -7 0 -15 -12 -8
-12 -10 0 -15 11 -5 11 -7 0 -14 -10 -6 -11 -9 -1 -9 6 0 12 -5 12 -11 0 -5
-5 -7 -10 -4 -13 8 -8 -17 5 -27 6 -5 4 -12 -5 -18 -13 -9 -13 -10 0 -10 13 0
13 -1 0 -10 -13 -9 -13 -11 -1 -19 12 -8 12 -12 2 -25 -9 -11 -10 -16 -2 -16
6 0 11 -5 11 -11 0 -5 -6 -7 -12 -3 -9 5 -9 2 1 -9 11 -14 11 -17 0 -18 -12 0
-12 -1 0 -6 11 -5 11 -7 0 -15 -12 -8 -12 -10 0 -15 11 -5 11 -7 0 -14 -10 -6
-11 -9 -1 -9 6 0 12 -5 12 -11 0 -5 -5 -7 -10 -4 -13 8 -8 -17 5 -27 6 -5 4
-12 -5 -18 -13 -9 -13 -10 0 -10 13 0 13 -1 0 -10 -13 -9 -13 -10 0 -10 13 0
13 -1 0 -10 -13 -9 -13 -10 0 -10 13 0 13 -1 0 -11 -12 -9 -13 -12 -1 -16 11
-5 11 -7 0 -14 -10 -6 -11 -9 -1 -9 6 0 12 -5 12 -11 0 -5 -5 -7 -10 -4 -13 8
-8 -17 5 -27 6 -5 4 -12 -5 -18 -13 -9 -13 -10 0 -10 13 0 13 -1 0 -10 -13 -9
-13 -11 -1 -19 12 -8 12 -12 2 -25 -9 -11 -10 -16 -2 -16 6 0 11 -5 11 -11 0
-5 -6 -7 -12 -3 -9 5 -9 2 1 -9 11 -14 11 -17 0 -18 -12 0 -12 -1 0 -6 11 -5
11 -7 0 -15 -12 -8 -12 -10 0 -15 11 -5 11 -7 0 -14 -10 -6 -11 -9 -1 -9 6 0
12 -5 12 -11 0 -5 -5 -7 -10 -4 -13 8 -8 -17 5 -27 6 -5 4 -12 -5 -18 -13 -9
-13 -10 0 -10 13 0 13 -1 0 -10 -13 -9 -13 -11 -1 -19 12 -8 12 -12 2 -25 -9
-11 -10 -16 -2 -16 6 0 11 -5 11 -11 0 -5 -6 -7 -12 -3 -9 5 -9 2 1 -9 11 -14
11 -17 0 -18 -12 0 -12 -1 0 -6 11 -5 11 -7 0 -15 -12 -8 -12 -10 0 -15 11 -5
11 -7 0 -14 -10 -6 -11 -9 -1 -9 6 0 12 -5 12 -11 0 -5 -5 -7 -10 -4 -13 8 -8
-17 5 -27 6 -5 4 -12 -5 -18 -13 -9 -13 -10 0 -10 13 0 13 -1 0 -10 -13 -9
-13 -10 0 -10 13 0 13 -1 0 -10 -13 -9 -13 -10 0 -10 13 0 13 -1 0 -11 -12 -9
-13 -12 -1 -16 11 -5 11 -7 0 -14 -10 -6 -11 -9 -1 -9 6 0 12 -5 12 -11 0 -5
-5 -7 -10 -4 -13 8 -8 -17 5 -27 6 -5 4 -12 -5 -18 -13 -9 -13 -10 0 -10 13 0
13 -1 0 -10 -13 -9 -13 -11 -1 -19 12 -8 12 -12 2 -25 -9 -11 -10 -16 -2 -16
6 0 11 -5 11 -11 0 -5 -6 -7 -12 -3 -9 5 -9 2 1 -9 11 -14 11 -17 0 -18 -12 0
-12 -1 0 -6 11 -5 11 -7 0 -15 -12 -8 -12 -10 0 -15 11 -5 11 -7 0 -14 -10 -6
-11 -9 -1 -9 6 0 12 -5 12 -11 0 -5 -5 -7 -10 -4 -13 8 -8 -17 5 -27 6 -5 4
-12 -5 -18 -13 -9 -13 -10 0 -10 13 0 13 -1 0 -10 -13 -9 -13 -11 -1 -19 12
-8 12 -12 2 -25 -9 -11 -10 -16 -2 -16 6 0 11 -5 11 -11 0 -5 -6 -7 -12 -3 -9
5 -9 2 1 -9 11 -14 11 -17 0 -18 -12 0 -12 -1 0 -6 11 -5 11 -7 0 -15 -12 -8
-12 -10 0 -15 11 -5 11 -7 0 -14 -10 -6 -11 -9 -1 -9 6 0 12 -5 12 -11 0 -5
-5 -7 -10 -4 -13 8 -8 -17 5 -28 6 -4 4 -11 -5 -17 -13 -9 -13 -10 0 -10 13 0
13 -1 0 -10 -13 -9 -13 -10 0 -10 13 0 13 -1 0 -10 -13 -9 -13 -10 0 -10 13 0
13 -1 0 -11 -12 -9 -13 -12 -1 -16 11 -5 11 -7 0 -14 -10 -6 -11 -9 -1 -9 6 0
12 -5 12 -11 0 -5 -5 -7 -10 -4 -13 8 -8 -17 5 -28 6 -4 4 -11 -5 -17 -13 -9
-13 -10 0 -10 13 0 13 -1 0 -10 -13 -9 -13 -11 -1 -19 12 -8 12 -12 2 -25 -9
-11 -10 -16 -2 -16 6 0 11 -5 11 -11 0 -5 -6 -7 -12 -3 -9 5 -9 2 1 -9 11 -14
11 -17 0 -18 -12 0 -12 -1 0 -6 11 -5 11 -7 0 -15 -12 -8 -12 -10 0 -15 11 -5
11 -7 0 -14 -10 -6 -11 -9 -1 -9 6 0 12 -5 12 -11 0 -5 -5 -7 -10 -4 -13 8 -8
-17 5 -27 6 -5 4 -12 -5 -18 -13 -9 -13 -10 0 -10 13 0 13 -1 0 -10 -13 -9
-13 -11 -1 -19 12 -8 12 -12 2 -25 -9 -11 -10 -16 -2 -16 6 0 11 -5 11 -11 0
-5 -6 -7 -12 -3 -9 5 -9 2 1 -9 11 -14 11 -17 0 -18 -12 0 -12 -1 0 -6 11 -5
11 -7 0 -15 -12 -8 -12 -10 0 -15 11 -5 11 -7 0 -14 -10 -6 -11 -9 -1 -9 6 0
12 -5 12 -11 0 -5 -5 -7 -10 -4 -13 8 -8 -17 5 -27 6 -5 4 -12 -5 -18 -13 -9
-13 -10 0 -10 13 0 13 -1 0 -10 -13 -9 -13 -10 0 -10 13 0 13 -1 0 -10 -13 -9
-13 -10 0 -10 13 0 13 -1 0 -11 -12 -9 -13 -12 -1 -16 11 -5 11 -7 0 -14 -10
-6 -11 -9 -1 -9 6 0 12 -5 12 -11 0 -5 -5 -7 -10 -4 -13 8 -8 -17 5 -27 6 -5
4 -12 -5 -18 -13 -9 -13 -10 0 -10 13 0 13 -1 0 -10 -13 -9 -13 -11 -1 -19 12
-8 12 -12 2 -25 -9 -11 -10 -16 -2 -16 6 0 11 -5 11 -11 0 -5 -6 -7 -12 -3 -9
5 -9 2 1 -9 11 -14 11 -17 0 -18 -12 0 -12 -1 0 -6 11 -5 11 -7 0 -15 -12 -8
-12 -10 0 -15 11 -5 11 -7 0 -14 -10 -6 -11 -9 -1 -9 6 0 12 -5 12 -11 0 -5
-5 -7 -10 -4 -13 8 -8 -17 5 -28 6 -4 4 -11 -5 -17 -13 -9 -13 -10 0 -10 13 0
13 -1 0 -10 -13 -9 -13 -11 -1 -19 12 -8 12 -12 2 -25 -9 -11 -10 -16 -2 -16
6 0 11 -5 11 -11 0 -5 -6 -7 -12 -3 -9 5 -9 2 1 -9 11 -14 11 -17 0 -18 -12 0
-12 -1 0 -6 11 -5 11 -7 0 -15 -12 -8 -12 -10 0 -15 11 -5 11 -7 0 -14 -10 -6
-11 -9 -1 -9 6 0 12 -5 12 -11 0 -5 -5 -7 -10 -4 -13 8 -8 -17 5 -27 6 -5 4
-12 -5 -18 -13 -9 -13 -10 0 -10 13 0 13 -1 0 -10 -13 -9 -13 -10 0 -10 13 0
13 -1 0 -10 -13 -9 -13 -10 0 -10 13 0 13 -1 0 -11 -12 -9 -13 -12 -1 -16 11
-5 11 -7 0 -14 -10 -6 -11 -9 -1 -9 6 0 12 -5 12 -11 0 -5 -5 -7 -10 -4 -13 8
-8 -17 5 -27 6 -5 4 -12 -5 -18 -13 -9 -13 -10 0 -10 13 0 13 -1 0 -10 -13 -9
-13 -11 -1 -19 12 -8 12 -12 2 -25 -9 -11 -10 -16 -2 -16 6 0 11 -5 11 -11 0
-5 -6 -7 -12 -3 -9 5 -9 2 1 -9 11 -14 11 -17 0 -18 -12 0 -12 -1 0 -6 11 -5
11 -7 0 -15 -12 -8 -12 -10 0 -15 11 -5 11 -7 0 -14 -10 -6 -11 -9 -1 -9 6 0
12 -5 12 -11 0 -5 -5 -7 -10 -4 -13 8 -8 -17 5 -27 6 -5 4 -12 -5 -18 -13 -9
-13 -10 0 -10 13 0 13 -1 0 -10 -13 -9 -13 -11 -1 -19 12 -8 12 -12 2 -25 -9
-11 -10 -16 -2 -16 6 0 11 -5 11 -11 0 -5 -6 -7 -12 -3 -9 5 -9 2 1 -9 11 -14
11 -17 0 -18 -12 0 -12 -1 0 -6 11 -5 11 -7 0 -15 -12 -8 -12 -10 0 -15 11 -5
11 -7 0 -14 -10 -6 -11 -9 -1 -9 6 0 12 -5 12 -11 0 -5 -5 -7 -10 -4 -13 8 -8
-17 5 -28 6 -4 4 -11 -5 -17 -13 -9 -13 -10 0 -10 13 0 13 -1 0 -10 -13 -9
-13 -10 0 -10 13 0 13 -1 0 -10 -13 -9 -13 -10 0 -10 13 0 13 -1 0 -11 -12 -9
-13 -12 -1 -16 11 -5 11 -7 0 -14 -10 -6 -11 -9 -1 -9 6 0 12 -5 12 -11 0 -5
-5 -7 -10 -4 -13 8 -8 -17 5 -27 6 -5 4 -12 -5 -18 -13 -9 -13 -10 0 -10 13 0
13 -1 0 -10 -13 -9 -13 -11 -1 -19 12 -8 12 -12 2 -25 -9 -11 -10 -16 -2 -16
6 0 11 -5 11 -11 0 -5 -6 -7 -12 -3 -9 5 -9 2 1 -9 11 -14 11 -17 0 -18 -12 0
-12 -1 0 -6 11 -5 11 -7 0 -15 -12 -8 -12 -10 0 -15 11 -5 11 -7 0 -14 -10 -6
-11 -9 -1 -9 6 0 12 -5 12 -11 0 -5 -5 -7 -10 -4 -13 8 -8 -17 5 -27 6 -5 4
-12 -5 -18 -13 -9 -13 -10 0 -10 13 0 13 -1 0 -10 -13 -9 -13 -11 -1 -19 12
-8 12 -12 2 -25 -9 -11 -10 -16 -2 -16 6 0 11 -5 11 -11 0 -5 -6 -7 -12 -3 -9
5 -9 2 1 -9 11 -14 11 -17 0 -18 -12 0 -12 -1 0 -6 11 -5 11 -7 0 -15 -12 -8
-12 -10 0 -15 11 -5 11 -7 0 -14 -10 -6 -11 -9 -1 -9 6 0 12 -5 12 -11 0 -5
-5 -7 -10 -4 -13 8 -8 -17 5 -27 6 -5 4 -12 -5 -18 -13 -9 -13 -10 0 -10 13 0
13 -1 0 -10 -13 -9 -13 -10 0 -10 13 0 13 -1 0 -10 -13 -9 -13 -10 0 -10 13 0
13 -1 0 -11 -12 -9 -13 -12 -1 -16 11 -5 11 -7 0 -14 -10 -6 -11 -9 -1 -9 6 0
12 -5 12 -11 0 -5 -5 -7 -10 -4 -13 8 -8 -17 5 -27 6 -5 4 -12 -5 -18 -13 -9
-13 -10 0 -10 13 0 13 -1 0 -10 -13 -9 -13 -11 -1 -19 12 -8 12 -12 2 -25 -9
-11 -10 -16 -2 -16 6 0 11 -5 11 -11 0 -5 -6 -7 -12 -3 -9 5 -9 2 1 -9 11 -14
11 -17 0 -18 -12 0 -12 -1 0 -6 11 -5 11 -7 0 -15 -12 -8 -12 -10 0 -15 11 -5
11 -7 0 -14 -10 -6 -11 -9 -1 -9 6 0 12 -5 12 -11 0 -5 -5 -7 -10 -4 -13 8 -8
-17 5 -28 6 -4 4 -11 -5 -17 -13 -9 -13 -10 0 -10 13 0 13 -1 0 -10 -13 -9
-13 -11 -1 -19 12 -8 12 -12 2 -25 -9 -11 -10 -16 -2 -16 6 0 11 -5 11 -11 0
-5 -6 -7 -12 -3 -9 5 -9 2 1 -9 11 -14 11 -17 0 -18 -12 0 -12 -1 0 -6 11 -5
11 -7 0 -15 -12 -8 -12 -10 0 -15 11 -5 11 -7 0 -14 -10 -6 -11 -9 -1 -9 6 0
12 -5 12 -11 0 -5 -5 -7 -10 -4 -13 8 -8 -17 5 -27 6 -5 4 -12 -5 -18 -13 -9
-13 -10 0 -10 13 0 13 -1 0 -10 -13 -9 -13 -11 -1 -19 12 -8 12 -12 2 -25 -9
-11 -10 -16 -2 -16 6 0 11 -5 11 -11 0 -5 -6 -7 -12 -3 -9 5 -9 2 1 -9 11 -14
11 -17 0 -18 -12 0 -12 -1 0 -6 11 -5 11 -7 0 -15 -12 -8 -12 -10 0 -15 11 -5
11 -7 0 -14 -10 -6 -11 -9 -1 -9 6 0 12 -5 12 -11 0 -5 -5 -7 -10 -4 -13 8 -8
-17 5 -27 6 -5 4 -12 -5 -18 -13 -9 -13 -10 0 -10 13 0 13 -1 0 -10 -13 -9
-13 -11 -1 -19 12 -8 12 -12 2 -25 -9 -11 -10 -16 -2 -16 6 0 11 -5 11 -11 0
-5 -6 -7 -12 -3 -9 5 -9 2 1 -9 11 -14 11 -17 0 -18 -12 0 -12 -1 0 -6 11 -5
11 -7 0 -15 -12 -8 -12 -10 0 -15 11 -5 11 -7 0 -14 -10 -6 -11 -9 -1 -9 6 0
12 -5 12 -11 0 -5 -5 -7 -10 -4 -13 8 -8 -17 5 -27 6 -5 4 -12 -5 -18 -13 -9
-13 -10 0 -10 13 0 13 -1 0 -10 -13 -9 -13 -11 -1 -19 12 -8 12 -12 2 -25 -9
-11 -10 -16 -2 -16 6 0 11 -5 11 -11 0 -5 -6 -7 -12 -3 -9 5 -9 2 1 -9 11 -14
11 -17 0 -18 -12 0 -12 -1 0 -6 11 -5 11 -7 0 -15 -12 -8 -12 -10 0 -15 11 -5
11 -7 0 -14 -10 -6 -11 -9 -1 -9 6 0 12 -5 12 -11 0 -5 -5 -7 -10 -4 -13 8 -8
-17 5 -27 6 -5 4 -12 -5 -18 -13 -9 -13 -10 0 -10 13 0 13 -1 0 -10 -13 -9
-13 -11 -1 -19 12 -8 12 -12 2 -25 -9 -11 -10 -16 -2 -16 6 0 11 -5 11 -11 0
-5 -6 -7 -12 -3 -9 5 -9 2 1 -9 11 -14 11 -17 0 -18 -12 0 -12 -1 0 -6 11 -5
11 -7 0 -15 -12 -8 -12 -10 0 -15 11 -5 11 -7 0 -14 -10 -6 -11 -9 -1 -9 6 0
12 -5 12 -11 0 -5 -5 -7 -10 -4 -13 8 -8 -17 5 -28 6 -4 4 -11 -5 -17 -13 -9
-13 -10 0 -10 13 0 13 -1 0 -10 -13 -9 -13 -11 -1 -19 12 -8 12 -12 2 -25 -9
-11 -10 -16 -2 -16 6 0 11 -5 11 -11 0 -5 -6 -7 -12 -3 -9 5 -9 2 1 -9 11 -14
11 -17 0 -18 -12 0 -12 -1 0 -6 11 -5 11 -7 0 -15 -12 -8 -12 -10 0 -15 11 -5
11 -7 0 -14 -10 -6 -11 -9 -1 -9 6 0 12 -5 12 -11 0 -5 -5 -7 -10 -4 -13 8 -8
-17 5 -28 6 -4 4 -11 -5 -17 -13 -9 -13 -10 0 -10 13 0 13 -1 0 -10 -13 -9
-13 -11 -1 -19 12 -8 12 -12 2 -24 -9 -12 -9 -16 1 -19 10 -4 10 -8 -1 -21
-11 -14 -11 -17 0 -17 11 0 11 -2 -1 -10 -10 -6 -11 -10 -2 -10 6 0 12 -5 12
-11 0 -5 -5 -7 -11 -3 -8 5 -8 1 0 -14 8 -15 8 -23 -1 -28 -7 -4 -8 -3 -4 4
10 16 -7 15 -23 0 -11 -11 -14 -10 -18 1 -5 11 -7 11 -14 0 -7 -12 -9 -12 -9
0 0 11 -3 11 -16 0 -13 -10 -17 -10 -25 2 -8 12 -10 12 -19 -1 -9 -13 -10 -13
-10 0 0 13 -1 13 -10 0 -9 -13 -10 -13 -10 0 0 13 -1 13 -10 0 -9 -13 -10 -13
-10 0 0 13 -1 13 -10 0 -6 -9 -13 -11 -17 -5 -11 13 -36 18 -28 5 3 -5 1 -10
-4 -10 -6 0 -11 6 -11 13 0 8 -4 7 -10 -3 -9 -13 -10 -13 -10 0 0 13 -1 13
-10 0 -8 -12 -10 -12 -10 -1 0 11 -3 11 -16 0 -13 -10 -17 -10 -25 2 -7 12 -9
12 -9 -1 0 -13 -1 -13 -11 0 -9 12 -12 13 -16 1 -5 -11 -7 -11 -14 0 -7 12 -9
11 -9 -1 0 -13 -1 -13 -10 0 -9 13 -10 13 -10 0 0 -13 -1 -13 -10 0 -8 12 -10
12 -10 1 0 -11 -3 -11 -17 0 -11 10 -14 10 -9 2 4 -7 2 -13 -3 -13 -6 0 -11 6
-11 13 0 8 -4 7 -10 -3 -8 -12 -10 -12 -10 -1 0 11 -3 11 -17 0 -14 -12 -17
-12 -21 0 -4 11 -6 11 -13 0 -7 -12 -9 -12 -9 0 0 11 -3 11 -16 0 -13 -10 -17
-10 -25 2 -8 12 -10 12 -19 -1 -9 -13 -10 -13 -11 0 0 12 -2 12 -6 1 -5 -11
-7 -11 -14 0 -7 12 -9 11 -9 -1 0 -13 -1 -13 -10 0 -9 13 -10 13 -10 0 0 -13
-1 -13 -10 0 -9 13 -10 13 -10 0 0 -13 -1 -13 -10 0 -9 13 -10 13 -10 0 0 -13
-1 -13 -10 0 -9 13 -10 13 -10 0 0 -13 -1 -13 -10 0 -8 12 -10 12 -10 1 0 -11
-3 -11 -17 0 -11 10 -14 10 -9 2 4 -7 2 -13 -3 -13 -6 0 -11 6 -11 13 0 8 -4
7 -10 -3 -8 -12 -10 -12 -10 -1 0 11 -3 11 -17 0 -14 -12 -17 -12 -21 0 -4 11
-6 11 -13 0 -7 -12 -9 -12 -9 0 0 11 -3 11 -16 0 -13 -10 -17 -10 -25 2 -8 12
-10 12 -19 -1 -9 -13 -10 -13 -10 0 0 13 -1 13 -10 0 -9 -13 -10 -13 -10 0 0
13 -1 13 -10 0 -9 -13 -10 -13 -10 0 0 13 -1 13 -10 0 -6 -9 -13 -11 -17 -5
-11 13 -36 18 -28 5 3 -5 1 -10 -4 -10 -6 0 -11 6 -11 13 0 8 -4 7 -10 -3 -9
-13 -10 -13 -10 0 0 13 -1 13 -10 0 -8 -12 -10 -12 -10 -1 0 11 -3 11 -16 0
-13 -10 -17 -10 -25 2 -7 12 -9 12 -9 -1 0 -13 -1 -13 -11 0 -9 12 -12 13 -16
1 -5 -11 -7 -11 -14 0 -7 12 -9 11 -9 -1 0 -13 -1 -13 -10 0 -9 13 -10 13 -10
0 0 -13 -1 -13 -10 0 -8 12 -10 12 -10 1 0 -11 -3 -11 -17 0 -11 10 -14 10 -9
1 4 -6 2 -12 -3 -12 -6 0 -11 6 -11 13 0 8 -4 7 -10 -3 -8 -12 -10 -12 -10 -1
0 11 -3 11 -17 0 -14 -12 -17 -12 -21 0 -4 11 -6 11 -13 0 -7 -12 -9 -12 -9 0
0 11 -3 11 -16 0 -13 -10 -17 -10 -25 2 -8 12 -10 12 -19 -1 -9 -13 -10 -13
-10 0 0 13 -1 13 -10 0 -9 -13 -10 -13 -10 0 0 13 -1 13 -10 0 -9 -13 -10 -13
-10 0 0 13 -1 13 -10 0 -6 -9 -13 -11 -17 -5 -11 13 -36 18 -28 5 3 -5 1 -10
-4 -10 -6 0 -11 6 -11 13 0 8 -4 7 -10 -3 -9 -13 -10 -13 -10 0 0 13 -1 13
-10 0 -8 -12 -10 -12 -10 -1 0 11 -3 11 -16 0 -13 -10 -17 -10 -25 2 -7 12 -9
12 -9 -1 0 -13 -1 -13 -11 0 -9 12 -12 13 -16 1 -5 -11 -7 -11 -14 0 -7 12 -9
11 -9 -1 0 -13 -1 -13 -10 0 -9 13 -10 13 -10 0 0 -13 -1 -13 -10 0 -8 12 -10
12 -10 1 0 -11 -3 -11 -17 0 -11 10 -14 10 -9 2 4 -7 2 -13 -3 -13 -6 0 -11 6
-11 13 0 8 -4 7 -10 -3 -8 -12 -10 -12 -10 -1 0 11 -3 11 -17 0 -14 -12 -17
-12 -21 0 -4 11 -6 11 -13 0 -7 -12 -9 -12 -9 0 0 11 -3 11 -16 0 -13 -10 -17
-10 -26 2 -8 12 -10 12 -15 0 -5 -11 -7 -11 -14 0 -7 12 -9 11 -9 -1 0 -13 -1
-13 -10 0 -9 13 -10 13 -10 0 0 -13 -1 -13 -10 0 -8 12 -10 12 -10 1 0 -11 -3
-11 -17 0 -11 10 -14 10 -9 2 4 -7 2 -13 -3 -13 -6 0 -11 6 -11 13 0 8 -4 7
-10 -3 -8 -12 -10 -12 -10 -1 0 10 -3 11 -14 2 -10 -8 -16 -9 -21 -1 -3 6 -12
7 -18 3 -17 -10 -37 -13 -37 -4 0 4 -9 7 -19 7 -11 0 -17 -4 -15 -8 8 -13 -11
-9 -25 5 -11 10 -12 9 -6 -3 8 -13 7 -13 -8 -1 -11 9 -17 10 -17 2 0 -6 -5
-11 -11 -11 -5 0 -7 6 -3 13 6 9 4 9 -8 -1 -12 -10 -18 -10 -23 -1 -6 8 -10 7
-16 -2 -6 -9 -12 -10 -16 -4 -11 13 -36 18 -28 5 3 -5 1 -10 -4 -10 -6 0 -11
6 -11 13 0 8 -4 7 -10 -3 -8 -12 -10 -12 -10 -1 0 10 -3 11 -14 2 -10 -8 -16
-9 -21 -1 -3 6 -12 7 -18 3 -17 -10 -37 -13 -37 -4 0 4 -9 7 -19 7 -11 0 -17
-4 -15 -8 8 -13 -11 -9 -25 5 -11 10 -12 9 -6 -3 8 -13 7 -13 -8 -1 -11 9 -17
10 -17 2 0 -6 -5 -11 -11 -11 -5 0 -7 6 -3 12 6 10 4 10 -8 0 -12 -10 -18 -10
-23 -1 -6 8 -10 7 -16 -2 -6 -9 -12 -10 -16 -4 -11 13 -36 18 -28 5 3 -5 1
-10 -4 -10 -6 0 -11 6 -11 13 0 8 -4 7 -10 -3 -8 -12 -10 -12 -10 -1 0 10 -3
11 -14 2 -10 -8 -16 -9 -21 -1 -3 6 -12 7 -18 3 -17 -10 -37 -13 -37 -4 0 4
-9 7 -19 7 -11 0 -17 -4 -15 -8 8 -13 -11 -9 -25 5 -11 10 -12 9 -6 -3 8 -13
7 -13 -8 -1 -11 9 -17 10 -17 2 0 -6 -5 -11 -11 -11 -5 0 -7 6 -3 13 6 9 4 9
-8 -1 -12 -10 -18 -10 -23 -1 -6 8 -10 7 -16 -2 -6 -9 -12 -10 -16 -4 -11 13
-36 18 -28 5 3 -5 1 -10 -4 -10 -6 0 -11 6 -11 13 0 8 -4 7 -10 -3 -8 -12 -10
-12 -10 -1 0 10 -3 11 -14 2 -10 -8 -16 -9 -21 -1 -3 6 -12 7 -18 3 -17 -10
-37 -13 -37 -4 0 4 -9 7 -19 7 -11 0 -17 -4 -15 -8 8 -13 -11 -9 -25 5 -11 10
-12 9 -6 -3 8 -13 7 -13 -8 -1 -11 9 -17 10 -17 2 0 -6 -5 -11 -11 -11 -5 0
-7 6 -3 13 6 9 4 9 -8 -1 -12 -10 -18 -10 -23 -1 -6 8 -10 7 -17 -2 -8 -12
-10 -12 -15 0 -5 11 -7 11 -14 0 -7 -12 -9 -12 -9 0 0 11 -3 11 -17 0 -14 -12
-17 -12 -21 0 -4 11 -6 11 -13 0 -7 -12 -9 -11 -9 1 0 13 -1 13 -10 0 -8 -12
-10 -12 -10 -1 0 11 -3 11 -16 0 -13 -10 -17 -10 -25 2 -7 12 -9 12 -9 -1 0
-13 -1 -13 -11 0 -9 12 -12 13 -16 1 -5 -11 -7 -11 -14 0 -7 12 -9 11 -9 -1 0
-13 -1 -13 -10 0 -9 13 -10 13 -10 0 0 -13 -1 -13 -10 0 -8 12 -10 12 -10 1 0
-11 -3 -11 -17 0 -11 10 -14 10 -9 2 4 -7 2 -13 -3 -13 -6 0 -11 6 -11 13 0 8
-4 7 -10 -3 -8 -12 -10 -12 -10 -1 0 11 -3 11 -17 0 -14 -12 -17 -12 -21 0 -4
11 -6 11 -13 0 -7 -12 -9 -12 -9 0 0 11 -3 11 -16 0 -13 -10 -17 -10 -25 2 -8
12 -10 12 -19 -1 -9 -13 -10 -13 -10 0 0 13 -1 13 -10 0 -9 -13 -10 -13 -10 0
0 13 -1 13 -10 0 -9 -13 -10 -13 -10 0 0 13 -1 13 -10 0 -6 -9 -13 -11 -17 -5
-11 13 -36 18 -28 5 3 -5 1 -10 -4 -10 -6 0 -11 6 -11 13 0 8 -4 7 -10 -3 -9
-13 -10 -13 -10 0 0 13 -1 13 -10 0 -8 -12 -10 -12 -10 -1 0 11 -3 11 -16 0
-13 -10 -17 -10 -25 2 -7 12 -9 12 -9 -1 0 -13 -1 -13 -11 0 -9 12 -12 13 -16
1 -5 -11 -7 -11 -14 0 -7 12 -9 11 -9 -1 0 -13 -1 -13 -10 0 -9 13 -10 13 -10
0 0 -13 -1 -13 -10 0 -8 12 -10 12 -10 1 0 -11 -3 -11 -17 0 -11 10 -14 10 -9
2 4 -7 2 -13 -3 -13 -6 0 -11 6 -11 13 0 8 -4 7 -10 -3 -8 -12 -10 -12 -10 -1
0 11 -3 11 -17 0 -14 -12 -17 -12 -21 0 -4 11 -6 11 -13 0 -7 -12 -9 -12 -9 0
0 11 -3 11 -16 0 -13 -10 -17 -10 -25 2 -8 12 -10 12 -19 -1 -9 -13 -10 -13
-10 0 0 13 -1 13 -10 0 -9 -13 -10 -13 -10 0 0 13 -1 13 -10 0 -9 -13 -10 -13
-10 0 0 13 -1 13 -10 0 -6 -9 -13 -11 -17 -5 -11 13 -36 18 -28 5 3 -5 1 -10
-4 -10 -6 0 -11 6 -11 13 0 8 -4 7 -10 -3 -9 -13 -10 -13 -10 0 0 13 -1 13
-10 0 -8 -12 -10 -12 -10 -1 0 11 -3 11 -16 0 -13 -10 -17 -10 -25 2 -7 12 -9
12 -9 -1 0 -13 -1 -13 -11 0 -9 12 -12 13 -16 1 -5 -11 -7 -11 -14 0 -7 12 -9
11 -9 -1 0 -13 -1 -13 -10 0 -9 13 -10 13 -10 0 0 -13 -1 -13 -10 0 -8 12 -10
12 -10 1 0 -11 -3 -11 -17 0 -11 10 -14 10 -9 2 4 -7 2 -13 -3 -13 -6 0 -11 6
-11 13 0 8 -4 7 -10 -3 -8 -12 -10 -12 -10 -1 0 11 -3 11 -17 0 -14 -12 -17
-12 -21 0 -4 11 -6 11 -13 0 -7 -12 -9 -12 -9 0 0 11 -3 11 -16 0 -13 -10 -17
-10 -25 2 -8 12 -10 12 -19 -1 -9 -13 -10 -13 -10 0 0 13 -1 13 -10 0 -9 -13
-10 -13 -10 0 0 13 -1 13 -10 0 -9 -13 -10 -13 -10 0 0 13 -1 13 -10 0 -6 -9
-13 -11 -18 -5 -10 13 -35 18 -27 5 3 -5 1 -10 -4 -10 -6 0 -11 6 -11 13 0 8
-4 7 -10 -3 -9 -13 -10 -13 -10 0 0 13 -1 13 -10 0 -8 -12 -10 -12 -10 -1 0
11 -3 11 -16 0 -13 -10 -17 -10 -25 2 -7 12 -9 12 -9 -1 0 -13 -1 -13 -11 0
-9 12 -12 13 -16 1 -5 -11 -7 -11 -14 0 -7 12 -9 11 -9 -1 0 -13 -1 -13 -10 0
-9 13 -10 13 -10 0 0 -13 -1 -13 -10 0 -8 12 -10 12 -10 1 0 -11 -3 -11 -17 0
-11 10 -14 10 -9 2 4 -7 2 -13 -3 -13 -6 0 -11 6 -11 13 0 8 -4 7 -10 -3 -8
-12 -10 -12 -10 -1 0 11 -3 11 -17 0 -14 -12 -17 -12 -21 0 -4 11 -6 11 -13 0
-7 -12 -9 -12 -9 0 0 11 -3 11 -16 0 -13 -10 -17 -10 -25 2 -8 12 -10 12 -19
-1 -9 -13 -10 -13 -10 0 0 13 -1 13 -10 0 -9 -13 -10 -13 -10 0 0 13 -1 13
-10 0 -9 -13 -10 -13 -10 0 0 13 -1 13 -10 0 -6 -9 -13 -11 -17 -5 -11 13 -36
18 -28 5 3 -5 1 -10 -4 -10 -6 0 -11 6 -11 13 0 8 -4 7 -10 -3 -9 -13 -10 -13
-10 0 0 13 -1 13 -10 0 -8 -12 -10 -12 -10 -1 0 11 -3 11 -16 0 -13 -10 -17
-10 -25 2 -7 12 -9 12 -9 -1 0 -13 -1 -13 -11 0 -9 12 -12 13 -16 1 -5 -11 -7
-11 -14 0 -7 12 -9 11 -9 -1 0 -13 -1 -13 -10 0 -9 13 -10 13 -10 0 0 -13 -1
-13 -10 0 -8 12 -10 12 -10 1 0 -11 -3 -11 -17 0 -11 10 -14 10 -9 2 4 -7 2
-13 -3 -13 -6 0 -11 6 -11 13 0 8 -4 7 -10 -3 -8 -12 -10 -12 -10 -1 0 11 -3
11 -17 0 -14 -12 -17 -12 -21 0 -4 11 -6 11 -13 0 -7 -12 -9 -12 -9 0 0 11 -3
11 -16 0 -13 -10 -17 -10 -25 2 -8 12 -10 12 -19 -1 -9 -13 -10 -13 -10 0 0
13 -1 13 -10 0 -9 -13 -10 -13 -10 0 0 13 -1 13 -10 0 -9 -13 -10 -13 -10 0 0
13 -1 13 -10 0 -6 -9 -13 -11 -17 -5 -11 13 -36 18 -28 5 3 -5 1 -10 -4 -10
-6 0 -11 6 -11 13 0 8 -4 7 -10 -3 -9 -13 -10 -13 -10 0 0 13 -1 13 -10 0 -8
-12 -10 -12 -10 -1 0 11 -3 11 -17 0 -14 -12 -17 -12 -21 0 -4 11 -6 11 -13 0
-7 -12 -9 -12 -9 0 0 11 -3 11 -17 0 -14 -12 -17 -12 -21 0 -4 11 -6 11 -13 0
-7 -12 -9 -12 -9 0 0 10 -3 11 -14 2 -10 -8 -16 -9 -21 -1 -3 6 -12 7 -18 3
-17 -10 -37 -13 -37 -4 0 4 -9 7 -19 7 -11 0 -17 -4 -15 -8 8 -13 -11 -9 -25
5 -11 10 -12 9 -6 -3 8 -13 7 -13 -8 -1 -11 9 -17 10 -17 2 0 -6 -5 -11 -11
-11 -5 0 -7 6 -3 13 6 9 4 9 -8 -1 -12 -10 -18 -10 -23 -1 -6 8 -10 7 -16 -2
-6 -9 -12 -10 -17 -4 -10 13 -35 18 -27 5 3 -5 1 -10 -4 -10 -6 0 -11 6 -11
13 0 8 -4 7 -10 -3 -8 -12 -10 -12 -10 -1 0 10 -3 11 -14 2 -10 -8 -16 -9 -21
-1 -3 6 -12 7 -18 3 -17 -10 -37 -13 -37 -4 0 4 -9 7 -19 7 -11 0 -17 -4 -15
-8 8 -13 -11 -9 -25 5 -11 10 -12 9 -6 -3 8 -13 7 -13 -8 -1 -11 9 -17 10 -17
2 0 -6 -5 -11 -11 -11 -5 0 -7 6 -3 13 6 9 4 9 -8 -1 -12 -10 -18 -10 -23 -1
-6 8 -10 7 -16 -2 -6 -9 -12 -10 -16 -4 -11 13 -36 18 -28 5 3 -5 1 -10 -4
-10 -6 0 -11 6 -11 13 0 8 -4 7 -10 -3 -8 -12 -10 -12 -10 -1 0 10 -3 11 -14
2 -10 -8 -16 -9 -21 -1 -3 6 -12 7 -18 3 -17 -10 -37 -13 -37 -4 0 4 -9 7 -19
7 -11 0 -17 -4 -15 -8 8 -13 -11 -9 -25 5 -11 10 -12 9 -6 -3 8 -13 7 -13 -8
-1 -11 9 -17 10 -17 2 0 -6 -5 -11 -11 -11 -5 0 -7 6 -3 12 6 10 4 10 -8 0
-12 -10 -18 -10 -23 -1 -6 8 -10 7 -16 -2 -6 -9 -12 -10 -16 -4 -11 13 -36 18
-28 5 3 -5 1 -10 -4 -10 -6 0 -11 6 -11 13 0 8 -4 7 -10 -3 -8 -12 -10 -12
-10 -1 0 10 -3 11 -14 2 -10 -8 -16 -9 -21 -1 -3 6 -12 7 -18 3 -17 -10 -37
-13 -37 -4 0 4 -9 7 -19 7 -11 0 -17 -4 -15 -8 8 -13 -11 -9 -25 5 -11 10 -12
9 -6 -3 8 -13 7 -13 -8 -1 -11 9 -17 10 -17 2 0 -6 -5 -11 -11 -11 -5 0 -7 6
-3 13 6 9 4 9 -8 -1 -12 -10 -18 -10 -23 -1 -6 8 -10 7 -16 -2 -8 -12 -11 -11
-20 1 -9 12 -12 13 -16 1 -5 -11 -7 -11 -14 0 -7 12 -9 11 -9 -1 0 -13 -1 -13
-10 0 -9 13 -10 13 -10 0 0 -13 -1 -13 -10 0 -8 12 -10 12 -10 1 0 -11 -3 -11
-17 0 -11 10 -14 10 -9 2 4 -7 2 -13 -3 -13 -6 0 -11 6 -11 13 0 8 -4 7 -10
-3 -8 -12 -10 -12 -10 -1 0 11 -3 11 -17 0 -14 -12 -17 -12 -21 0 -4 11 -6 11
-13 0 -6 -10 -9 -8 -9 9 0 12 -5 22 -11 22 -8 0 -7 5 2 16 10 13 10 17 -2 25
-12 8 -12 10 1 19 13 9 13 10 0 10 -13 0 -13 1 0 10 13 9 13 11 0 20 -13 9
-13 10 0 10 13 0 13 1 0 10 -13 9 -13 10 0 10 13 0 13 1 0 10 -13 9 -13 10 0
10 13 0 13 1 0 10 -13 9 -13 11 0 20 13 9 13 10 0 10 -13 0 -13 1 0 10 13 9
13 10 0 10 -13 0 -13 1 0 10 13 9 13 10 0 10 -13 0 -13 1 0 10 13 9 13 11 0
20 -13 9 -13 10 0 10 13 0 13 1 0 10 -13 9 -13 10 0 10 13 0 13 1 0 10 -13 9
-13 10 0 10 13 0 13 1 0 11 -12 9 -13 12 -1 16 11 5 11 7 0 14 -12 7 -12 9 0
9 11 0 11 3 0 17 -10 11 -10 14 -1 9 6 -4 12 -2 12 3 0 6 -4 11 -8 11 -5 0 -9
7 -9 15 0 8 4 12 9 9 4 -3 8 0 8 5 0 6 -4 11 -8 11 -5 0 -9 7 -9 15 0 8 4 12
9 9 4 -3 8 0 8 5 0 6 -4 11 -8 11 -5 0 -9 7 -9 15 0 8 4 12 9 9 4 -3 8 0 8 5
0 6 -6 11 -12 12 -9 0 -9 2 1 6 11 5 11 7 0 14 -12 7 -11 9 1 9 13 0 13 1 0
10 -13 9 -13 10 0 10 13 0 13 1 0 10 -13 9 -13 10 0 10 13 0 13 1 0 10 -13 9
-13 11 0 20 13 9 13 10 0 10 -13 0 -13 1 0 10 13 9 13 11 0 20 -13 9 -13 10 0
10 13 0 13 1 0 10 -13 9 -13 10 0 10 13 0 13 1 0 10 -13 9 -13 10 0 10 13 0
13 1 0 10 -13 9 -13 11 0 20 13 9 13 10 0 10 -13 0 -13 1 0 11 12 9 13 12 1
16 -11 5 -11 7 0 14 12 7 11 9 -1 9 -13 0 -13 1 0 10 13 9 13 10 0 10 -13 0
-13 1 0 10 12 8 12 10 1 10 -11 0 -11 3 0 16 7 9 9 18 3 22 -13 10 -17 35 -4
27 5 -3 10 -1 10 4 0 6 -4 11 -8 11 -5 0 -9 7 -9 15 0 8 4 12 9 9 4 -3 8 0 8
5 0 6 -5 11 -11 11 -8 0 -7 5 2 16 10 13 10 17 -2 25 -12 8 -12 10 1 19 13 9
13 10 0 10 -13 0 -13 1 0 10 13 9 13 11 0 20 -13 9 -13 10 0 10 13 0 13 1 0
10 -13 9 -13 10 0 10 13 0 13 1 0 10 -13 9 -13 10 0 10 13 0 13 1 0 10 -13 9
-13 11 0 20 13 9 13 10 0 10 -13 0 -13 1 0 10 13 9 13 10 0 10 -13 0 -13 1 0
10 13 9 13 10 0 10 -13 0 -13 1 0 10 13 9 13 11 0 20 -13 9 -13 10 0 10 13 0
13 1 0 10 -13 9 -13 10 0 10 13 0 13 1 0 10 -13 9 -13 10 0 10 13 0 13 1 0 10
-13 9 -13 11 0 20 13 9 13 10 0 10 -13 0 -13 1 0 10 13 9 13 11 0 20 -13 9
-13 10 0 10 13 0 13 1 0 10 -13 9 -13 10 0 10 13 0 13 1 0 10 -13 9 -13 10 0
10 13 0 13 1 0 10 -13 9 -13 11 0 20 13 9 13 10 0 10 -13 0 -13 1 0 10 13 9
13 11 0 20 -13 9 -13 10 0 10 13 0 13 1 0 10 -13 9 -13 10 0 10 13 0 13 1 0
10 -13 9 -13 10 0 10 13 0 13 1 0 10 -13 9 -13 11 0 20 13 9 13 10 0 10 -13 0
-13 1 0 10 13 9 13 11 0 20 -13 9 -13 10 0 10 13 0 13 1 0 10 -13 9 -13 10 0
10 13 0 13 1 0 10 -13 9 -13 10 0 10 13 0 13 1 0 10 -13 9 -13 10 0 10 13 0
13 1 0 10 -13 9 -13 10 0 10 13 0 13 1 0 10 -13 9 -13 10 0 10 13 0 13 1 0 10
-13 9 -13 10 0 10 13 0 13 1 0 10 -13 9 -13 11 0 20 13 9 13 10 0 10 -13 0
-13 1 0 10 13 9 13 11 0 20 -13 9 -13 10 0 10 13 0 13 1 0 10 -13 9 -13 10 0
10 13 0 13 1 0 10 -13 9 -13 10 0 10 13 0 13 1 0 10 -13 9 -13 11 0 20 13 9
13 10 0 10 -13 0 -13 1 0 10 13 9 13 11 0 20 -13 9 -13 10 0 10 13 0 13 1 0
10 -13 9 -13 10 0 10 13 0 13 1 0 10 -13 9 -13 10 0 10 13 0 13 1 0 10 -13 9
-13 10 0 10 13 0 13 1 0 10 -13 9 -13 10 0 10 13 0 13 1 0 10 -13 9 -13 10 0
10 13 0 13 1 0 10 -13 9 -13 10 0 10 13 0 13 1 0 10 -13 9 -13 11 0 20 13 9
13 10 0 10 -13 0 -13 1 0 10 13 9 13 11 0 20 -13 9 -13 10 0 10 13 0 13 1 0
10 -13 9 -13 10 0 10 13 0 13 1 0 10 -13 9 -13 10 0 10 13 0 13 1 0 10 -13 9
-13 11 0 20 13 9 13 10 0 10 -13 0 -13 1 0 10 13 9 13 11 0 20 -13 9 -13 10 0
10 13 0 13 1 0 10 -13 9 -13 10 0 10 13 0 13 1 0 10 -13 9 -13 10 0 10 13 0
13 1 0 10 -13 9 -13 10 0 10 13 0 13 1 0 10 -13 9 -13 10 0 10 13 0 13 1 0 10
-13 9 -13 10 0 10 13 0 13 1 0 10 -13 9 -13 10 0 10 13 0 13 1 0 10 -13 9 -13
11 0 20 13 9 13 10 0 10 -13 0 -13 1 0 10 13 9 13 11 0 20 -13 9 -13 10 0 10
13 0 13 1 0 10 -13 9 -13 10 0 10 13 0 13 1 0 10 -13 9 -13 10 0 10 13 0 13 1
0 10 -13 9 -13 11 0 20 13 9 13 10 0 10 -13 0 -13 1 0 10 13 9 13 11 0 20 -13
9 -13 10 0 10 13 0 13 1 0 10 -13 9 -13 10 0 10 13 0 13 1 0 10 -13 9 -13 10
0 10 13 0 13 1 0 10 -13 9 -13 10 0 10 13 0 13 1 0 10 -13 9 -13 10 0 10 13 0
13 1 0 10 -13 9 -13 10 0 10 13 0 13 1 0 10 -13 9 -13 10 0 10 13 0 13 1 0 10
-13 9 -13 11 0 20 13 9 13 10 0 10 -13 0 -13 1 0 10 13 9 13 11 0 20 -13 9
-13 10 0 10 13 0 13 1 0 10 -13 9 -13 10 0 10 13 0 13 1 0 10 -13 9 -13 10 0
10 13 0 13 1 0 10 -13 9 -13 11 0 20 13 9 13 10 0 10 -13 0 -13 1 0 10 13 9
13 11 0 20 -13 9 -13 10 0 10 13 0 13 1 0 10 -13 9 -13 10 0 10 13 0 13 1 0
10 -13 9 -13 10 0 10 13 0 13 1 0 10 -13 9 -13 10 0 10 13 0 13 1 0 10 -13 9
-13 10 0 10 13 0 13 1 0 10 -13 9 -13 10 0 10 13 0 13 1 0 10 -13 9 -13 10 0
10 13 0 13 1 0 10 -13 9 -13 11 0 20 13 9 13 10 0 10 -13 0 -13 1 0 10 13 9
13 11 0 20 -13 9 -13 10 0 10 13 0 13 1 0 10 -13 9 -13 10 0 10 13 0 13 1 0
10 -13 9 -13 10 0 10 13 0 13 1 0 10 -13 9 -13 11 0 20 13 9 13 10 0 10 -13 0
-13 1 0 10 13 9 13 11 0 20 -13 9 -13 10 0 10 13 0 13 1 0 10 -13 9 -13 10 0
10 13 0 13 1 0 10 -13 9 -13 10 0 10 13 0 13 1 0 10 -13 9 -13 10 0 10 13 0
13 1 0 10 -13 9 -13 10 0 10 13 0 13 1 0 10 -13 9 -13 10 0 10 13 0 13 1 0 10
-13 9 -13 10 0 10 13 0 13 1 0 10 -13 9 -13 11 0 20 13 9 13 10 0 10 -13 0
-13 1 0 10 13 9 13 11 0 20 -13 9 -13 10 0 10 13 0 13 1 0 10 -13 9 -13 10 0
10 13 0 13 1 0 10 -13 9 -13 10 0 10 13 0 13 1 0 10 -13 9 -13 11 0 20 13 9
13 10 0 10 -13 0 -13 1 0 10 13 9 13 11 0 20 -13 9 -13 10 0 10 13 0 13 1 0
10 -13 9 -13 10 0 10 13 0 13 1 0 10 -13 9 -13 10 0 10 13 0 13 1 0 10 -13 9
-13 10 0 10 13 0 13 1 0 10 -13 9 -13 10 0 10 13 0 13 1 0 10 -13 9 -13 10 0
10 13 0 13 1 0 10 -13 9 -13 10 0 10 13 0 13 1 0 10 -13 9 -13 11 0 20 13 9
13 10 0 10 -13 0 -13 1 0 10 13 9 13 11 0 20 -13 9 -13 10 0 10 13 0 13 1 0
10 -13 9 -13 10 0 10 13 0 13 1 0 10 -13 9 -13 10 0 10 13 0 13 1 0 10 -13 9
-13 11 0 20 13 9 13 10 0 10 -13 0 -13 1 0 10 13 9 13 11 0 20 -13 9 -13 10 0
10 13 0 13 1 0 10 -13 9 -13 10 0 10 13 0 13 1 0 10 -13 9 -13 10 0 10 13 0
13 1 0 10 -13 9 -13 11 0 20 13 9 13 10 0 10 -13 0 -13 1 0 10 13 9 13 11 0
20 -13 9 -13 10 0 10 13 0 13 1 0 10 -13 9 -13 10 0 10 13 0 13 1 0 10 -13 9
-13 10 0 10 13 0 13 1 0 10 -13 9 -13 11 0 20 13 9 13 10 0 10 -13 0 -13 1 0
10 13 9 13 10 0 10 -13 0 -13 1 0 10 13 9 13 10 0 10 -13 0 -13 1 0 10 13 9
13 11 0 20 -13 9 -13 10 0 10 13 0 13 1 0 10 -13 9 -13 10 0 10 13 0 13 1 0
10 -13 9 -13 10 0 10 13 0 13 1 0 11 -12 9 -13 12 -1 16 11 5 11 7 0 14 -12 7
-12 9 0 9 11 0 11 3 0 17 -10 11 -10 14 -1 9 6 -4 12 -2 12 3 0 6 -4 11 -8 11
-5 0 -9 7 -9 15 0 8 4 12 9 9 4 -3 8 0 8 5 0 6 -4 11 -8 11 -5 0 -9 7 -9 15 0
8 4 12 9 9 4 -3 8 0 8 5 0 6 -4 11 -8 11 -5 0 -9 7 -9 15 0 8 4 12 9 9 4 -3 8
0 8 5 0 6 -6 11 -12 12 -9 0 -9 2 1 6 11 5 11 7 0 14 -12 7 -11 9 1 9 13 0 13
1 0 10 -13 9 -13 10 0 10 13 0 13 1 0 10 -13 9 -13 10 0 10 13 0 13 1 0 10
-13 9 -13 11 0 20 13 9 13 10 0 10 -13 0 -13 1 0 10 13 9 13 11 0 20 -13 9
-13 10 0 10 13 0 13 1 0 10 -13 9 -13 10 0 10 13 0 13 1 0 10 -13 9 -13 10 0
10 13 0 13 1 0 10 -13 9 -13 11 0 20 13 9 13 10 0 10 -13 0 -13 1 0 11 12 9
13 12 1 16 -11 5 -11 7 0 14 12 7 11 9 -1 9 -13 0 -13 1 0 10 13 9 13 10 0 10
-13 0 -13 1 0 10 12 8 12 10 1 10 -11 0 -11 3 0 16 7 9 9 18 3 22 -13 10 -17
35 -4 27 5 -3 10 -1 10 4 0 6 -4 11 -8 11 -5 0 -9 7 -9 15 0 8 4 12 9 9 4 -3
8 0 8 5 0 6 -5 11 -11 11 -8 0 -7 5 2 16 10 13 10 17 -2 25 -12 8 -12 10 1 19
13 9 13 10 0 10 -13 0 -13 1 0 10 13 9 13 11 0 20 -13 9 -13 10 0 10 13 0 13
1 0 10 -13 9 -13 10 0 10 13 0 13 1 0 10 -13 9 -13 10 0 10 13 0 13 1 0 10
-13 9 -13 11 0 20 13 9 13 10 0 10 -13 0 -13 1 0 10 13 9 13 10 0 10 -13 0
-13 1 0 10 13 9 13 10 0 10 -13 0 -13 1 0 10 13 9 13 11 0 20 -13 9 -13 10 0
10 13 0 13 1 0 10 -13 9 -13 10 0 10 13 0 13 1 0 10 -13 9 -13 10 0 10 13 0
13 1 0 11 -12 9 -13 12 -1 16 11 5 11 7 0 14 -12 7 -12 9 0 9 11 0 11 3 0 17
-10 11 -10 14 -2 9 7 -4 13 -2 13 3 0 6 -4 11 -8 11 -5 0 -9 7 -9 15 0 8 4 12
9 9 4 -3 8 0 8 5 0 6 -4 11 -8 11 -5 0 -9 7 -9 15 0 8 4 12 9 9 4 -3 8 0 8 5
0 6 -4 11 -8 11 -5 0 -9 7 -9 15 0 8 4 12 9 9 4 -3 8 0 8 5 0 6 -6 11 -12 12
-9 0 -9 2 1 6 11 5 11 7 0 14 -12 7 -11 9 1 9 13 0 13 1 0 10 -13 9 -13 10 0
10 13 0 13 1 0 10 -13 9 -13 10 0 10 13 0 13 1 0 10 -13 9 -13 11 0 20 13 9
13 10 0 10 -13 0 -13 1 0 10 13 9 13 11 0 20 -13 9 -13 10 0 10 13 0 13 1 0
10 -13 9 -13 10 0 10 13 0 13 1 0 10 -13 9 -13 10 0 10 13 0 13 1 0 10 -13 9
-13 11 0 20 13 9 13 10 0 10 -13 0 -13 1 0 11 12 9 13 12 1 16 -11 5 -11 7 0
14 12 7 11 9 -1 9 -13 0 -13 1 0 10 13 9 13 10 0 10 -13 0 -13 1 0 10 12 8 12
10 1 10 -11 0 -11 3 0 16 7 9 9 18 3 22 -13 10 -17 35 -4 27 5 -3 10 -1 10 4
0 6 -4 11 -8 11 -5 0 -9 7 -9 15 0 8 4 12 9 9 4 -3 8 0 8 5 0 6 -5 11 -11 11
-8 0 -7 5 2 16 10 13 10 17 -2 25 -12 8 -12 10 1 19 13 9 13 10 0 10 -13 0
-13 1 0 10 13 9 13 11 0 20 -13 9 -13 10 0 10 13 0 13 1 0 10 -13 9 -13 10 0
10 13 0 13 1 0 10 -13 9 -13 10 0 10 13 0 13 1 0 10 -13 9 -13 11 0 20 13 9
13 10 0 10 -13 0 -13 1 0 10 13 9 13 10 0 10 -13 0 -13 1 0 10 13 9 13 10 0
10 -13 0 -13 1 0 10 13 9 13 11 0 20 -13 9 -13 10 0 10 13 0 13 1 0 10 -13 9
-13 10 0 10 13 0 13 1 0 10 -13 9 -13 10 0 10 13 0 13 1 0 11 -12 9 -13 12 -1
16 11 5 11 7 0 14 -12 7 -12 9 0 9 11 0 11 3 0 17 -10 11 -10 14 -1 9 6 -4 12
-2 12 3 0 6 -4 11 -8 11 -5 0 -9 7 -9 15 0 8 4 12 9 9 4 -3 8 0 8 5 0 6 -4 11
-8 11 -5 0 -9 7 -9 15 0 8 4 12 9 9 4 -3 8 0 8 5 0 6 -4 11 -8 11 -5 0 -9 7
-9 15 0 8 4 12 9 9 4 -3 8 0 8 5 0 6 -6 11 -12 12 -9 0 -9 2 1 6 11 5 11 7 0
14 -12 7 -11 9 1 9 13 0 13 1 0 10 -13 9 -13 10 0 10 13 0 13 1 0 10 -13 9
-13 10 0 10 13 0 13 1 0 10 -13 9 -13 11 0 20 13 9 13 10 0 10 -13 0 -13 1 0
10 13 9 13 11 0 20 -13 9 -13 10 0 10 13 0 13 1 0 10 -13 9 -13 10 0 10 13 0
13 1 0 10 -13 9 -13 10 0 10 13 0 13 1 0 10 -13 9 -13 11 0 20 13 9 13 10 0
10 -13 0 -13 1 0 11 12 9 13 12 1 16 -11 5 -11 7 0 14 12 7 11 9 -1 9 -13 0
-13 1 0 10 13 9 13 10 0 10 -13 0 -13 1 0 10 12 8 12 10 1 10 -11 0 -11 3 0
16 7 9 9 18 3 22 -13 10 -17 35 -4 27 5 -3 10 -1 10 4 0 6 -4 11 -8 11 -5 0
-9 7 -9 15 0 8 4 12 9 9 4 -3 8 0 8 5 0 6 -5 11 -11 11 -8 0 -7 5 2 16 10 13
10 17 -2 25 -12 8 -12 10 1 19 13 9 13 10 0 10 -13 0 -13 1 0 10 13 9 13 11 0
20 -13 9 -13 10 0 10 13 0 13 1 0 10 -13 9 -13 10 0 10 13 0 13 1 0 10 -13 9
-13 10 0 10 13 0 13 1 0 10 -13 9 -13 11 0 20 13 9 13 10 0 10 -13 0 -13 1 0
10 13 9 13 10 0 10 -13 0 -13 1 0 10 13 9 13 10 0 10 -13 0 -13 1 0 10 13 9
13 11 0 20 -13 9 -13 10 0 10 13 0 13 1 0 10 -13 9 -13 10 0 10 13 0 13 1 0
10 -13 9 -13 10 0 10 13 0 13 1 0 11 -12 9 -13 12 -1 16 11 5 11 7 0 14 -12 7
-12 9 0 9 11 0 11 3 0 17 -10 11 -10 14 -1 9 6 -4 12 -2 12 3 0 6 -4 11 -8 11
-5 0 -9 7 -9 15 0 8 4 12 9 9 4 -3 8 0 8 5 0 6 -4 11 -8 11 -5 0 -9 7 -9 15 0
8 4 12 9 9 4 -3 8 0 8 5 0 6 -4 11 -8 11 -5 0 -9 7 -9 15 0 8 4 12 9 9 4 -3 8
0 8 5 0 6 -6 11 -12 12 -9 0 -9 2 1 6 11 5 11 7 0 14 -12 7 -11 9 1 9 13 0 13
1 0 10 -13 9 -13 10 0 10 13 0 13 1 0 10 -13 9 -13 10 0 10 13 0 13 1 0 10
-13 9 -13 11 0 20 13 9 13 10 0 10 -13 0 -13 1 0 10 13 9 13 11 0 20 -13 9
-13 10 0 10 13 0 13 1 0 10 -13 9 -13 10 0 10 13 0 13 1 0 10 -13 9 -13 10 0
10 13 0 13 1 0 10 -13 9 -13 11 0 20 13 9 13 10 0 10 -13 0 -13 1 0 11 12 9
13 12 1 16 -11 5 -11 7 0 14 12 7 11 9 -1 9 -13 0 -13 1 0 10 13 9 13 10 0 10
-13 0 -13 1 0 10 12 8 12 10 1 10 -11 0 -11 3 0 16 7 9 9 18 3 22 -13 10 -17
35 -4 27 5 -3 10 -1 10 4 0 6 -4 11 -8 11 -5 0 -9 7 -9 15 0 8 4 12 9 9 4 -3
8 0 8 5 0 6 -5 11 -11 11 -8 0 -7 5 2 16 10 13 10 17 -2 25 -12 8 -12 10 1 19
13 9 13 10 0 10 -13 0 -13 1 0 10 13 9 13 11 0 20 -13 9 -13 10 0 10 13 0 13
1 0 10 -13 9 -13 10 0 10 13 0 13 1 0 10 -13 9 -13 10 0 10 13 0 13 1 0 10
-13 9 -13 11 0 20 13 9 13 10 0 10 -13 0 -13 1 0 10 13 9 13 10 0 10 -13 0
-13 1 0 10 13 9 13 10 0 10 -13 0 -13 1 0 10 13 9 13 11 0 20 -13 9 -13 10 0
10 13 0 13 1 0 10 -13 9 -13 10 0 10 13 0 13 1 0 10 -13 9 -13 10 0 10 13 0
13 1 0 11 -12 9 -13 12 -1 16 11 5 11 7 0 14 -12 7 -12 9 0 9 11 0 11 3 0 17
-10 11 -10 14 -1 9 6 -4 12 -2 12 3 0 6 -4 11 -8 11 -5 0 -9 7 -9 15 0 8 4 12
9 9 4 -3 8 0 8 5 0 6 -4 11 -8 11 -5 0 -9 7 -9 15 0 8 4 12 9 9 4 -3 8 0 8 5
0 6 -4 11 -8 11 -5 0 -9 7 -9 15 0 8 4 12 9 9 4 -3 8 0 8 5 0 6 -6 11 -12 12
-9 0 -9 2 1 6 11 5 11 7 0 14 -12 7 -11 9 1 9 13 0 13 1 0 10 -13 9 -13 10 0
10 13 0 13 1 0 10 -13 9 -13 10 0 10 13 0 13 1 0 10 -13 9 -13 11 0 20 13 9
13 10 0 10 -13 0 -13 1 0 10 13 9 13 11 0 20 -13 9 -13 10 0 10 13 0 13 1 0
10 -13 9 -13 10 0 10 13 0 13 1 0 10 -13 9 -13 10 0 10 13 0 13 1 0 10 -13 9
-13 11 0 20 13 9 13 10 0 10 -13 0 -13 1 0 11 12 9 13 12 1 16 -11 5 -11 7 0
14 12 7 11 9 -1 9 -13 0 -13 1 0 10 13 9 13 10 0 10 -13 0 -13 1 0 10 12 8 12
10 1 10 -11 0 -11 3 0 16 7 9 9 18 3 22 -13 10 -17 35 -4 27 5 -3 10 -1 10 4
0 6 -4 11 -8 11 -5 0 -9 7 -9 15 0 8 4 12 9 9 4 -3 8 0 8 5 0 6 -5 11 -11 11
-8 0 -7 5 2 16 10 13 10 17 -2 25 -12 8 -12 10 1 19 13 9 13 10 0 10 -13 0
-13 1 0 10 13 9 13 11 0 20 -13 9 -13 10 0 10 13 0 13 1 0 10 -13 9 -13 10 0
10 13 0 13 1 0 10 -13 9 -13 10 0 10 13 0 13 1 0 10 -13 9 -13 11 0 20 13 9
13 10 0 10 -13 0 -13 1 0 10 13 9 13 10 0 10 -13 0 -13 1 0 10 13 9 13 10 0
10 -13 0 -13 1 0 10 13 9 13 11 0 20 -13 9 -13 10 0 10 13 0 13 1 0 10 -13 9
-13 10 0 10 13 0 13 1 0 10 -13 9 -13 10 0 10 13 0 13 1 0 10 -13 9 -13 11 0
20 13 9 13 10 0 10 -13 0 -13 1 0 10 13 9 13 11 0 20 -13 9 -13 10 0 10 13 0
13 1 0 10 -13 9 -13 10 0 10 13 0 13 1 0 10 -13 9 -13 10 0 10 13 0 13 1 0 10
-13 9 -13 11 0 20 13 9 13 10 0 10 -13 0 -13 1 0 10 13 9 13 11 0 20 -13 9
-13 10 0 10 13 0 13 1 0 10 -13 9 -13 10 0 10 13 0 13 1 0 10 -13 9 -13 10 0
10 13 0 13 1 0 10 -13 9 -13 11 0 20 13 9 13 10 0 10 -13 0 -13 1 0 10 13 9
13 11 0 20 -13 9 -13 10 0 10 13 0 13 1 0 10 -13 9 -13 10 0 10 13 0 13 1 0
10 -13 9 -13 10 0 10 13 0 13 1 0 10 -13 9 -13 10 0 10 13 0 13 1 0 10 -13 9
-13 10 0 10 13 0 13 1 0 10 -13 9 -13 10 0 10 13 0 13 1 0 10 -13 9 -13 10 0
10 13 0 13 1 0 10 -13 9 -13 11 0 20 13 9 13 10 0 10 -13 0 -13 1 0 10 13 9
13 11 0 20 -13 9 -13 10 0 10 13 0 13 1 0 10 -13 9 -13 10 0 10 13 0 13 1 0
10 -13 9 -13 10 0 10 13 0 13 1 0 10 -13 9 -13 11 0 20 13 9 13 10 0 10 -13 0
-13 1 0 10 13 9 13 11 0 20 -13 9 -13 10 0 10 13 0 13 1 0 10 -13 9 -13 10 0
10 13 0 13 1 0 10 -13 9 -13 10 0 10 13 0 13 1 0 10 -13 9 -13 10 0 10 13 0
13 1 0 10 -13 9 -13 10 0 10 13 0 13 1 0 10 -13 9 -13 10 0 10 13 0 13 1 0 10
-13 9 -13 10 0 10 13 0 13 1 0 10 -13 9 -13 11 0 20 13 9 13 10 0 10 -13 0
-13 1 0 10 13 9 13 11 0 20 -13 9 -13 10 0 10 13 0 13 1 0 10 -13 9 -13 10 0
10 13 0 13 1 0 10 -13 9 -13 10 0 10 13 0 13 1 0 10 -13 9 -13 11 0 20 13 9
13 10 0 10 -13 0 -13 1 0 10 13 9 13 11 0 20 -13 9 -13 10 0 10 13 0 13 1 0
10 -13 9 -13 10 0 10 13 0 13 1 0 10 -13 9 -13 10 0 10 13 0 13 1 0 10 -13 9
-13 10 0 10 13 0 13 1 0 10 -13 9 -13 10 0 10 13 0 13 1 0 10 -13 9 -13 10 0
10 13 0 13 1 0 10 -13 9 -13 10 0 10 13 0 13 1 0 10 -13 9 -13 11 0 20 13 9
13 10 0 10 -13 0 -13 1 0 10 13 9 13 11 0 20 -13 9 -13 10 0 10 13 0 13 1 0
10 -13 9 -13 10 0 10 13 0 13 1 0 10 -13 9 -13 10 0 10 13 0 13 1 0 10 -13 9
-13 11 0 20 13 9 13 10 0 10 -13 0 -13 1 0 10 13 9 13 11 0 20 -13 9 -13 10 0
10 13 0 13 1 0 10 -13 9 -13 10 0 10 13 0 13 1 0 10 -13 9 -13 10 0 10 13 0
13 1 0 10 -13 9 -13 10 0 10 13 0 13 1 0 10 -13 9 -13 10 0 10 13 0 13 1 0 10
-13 9 -13 10 0 10 13 0 13 1 0 10 -13 9 -13 10 0 10 13 0 13 1 0 10 -13 9 -13
11 0 20 13 9 13 10 0 10 -13 0 -13 1 0 10 13 9 13 11 0 20 -13 9 -13 10 0 10
13 0 13 1 0 10 -13 9 -13 10 0 10 13 0 13 1 0 10 -13 9 -13 10 0 10 13 0 13 1
0 10 -13 9 -13 11 0 20 13 9 13 10 0 10 -13 0 -13 1 0 10 13 9 13 11 0 20 -13
9 -13 10 0 10 13 0 13 1 0 10 -13 9 -13 10 0 10 13 0 13 1 0 10 -13 9 -13 10
0 10 13 0 13 1 0 10 -13 9 -13 10 0 10 13 0 13 1 0 10 -13 9 -13 10 0 10 13 0
13 1 0 10 -13 9 -13 10 0 10 13 0 13 1 0 10 -13 9 -13 10 0 10 13 0 13 1 0 10
-13 9 -13 11 0 20 13 9 13 10 0 10 -13 0 -13 1 0 10 13 9 13 11 0 20 -13 9
-13 10 0 10 13 0 13 1 0 10 -13 9 -13 10 0 10 13 0 13 1 0 10 -13 9 -13 10 0
10 13 0 13 1 0 10 -13 9 -13 11 0 20 13 9 13 10 0 10 -13 0 -13 1 0 10 13 9
13 11 0 20 -13 9 -13 10 0 10 13 0 13 1 0 10 -13 9 -13 10 0 10 13 0 13 1 0
10 -13 9 -13 10 0 10 13 0 13 1 0 10 -13 9 -13 10 0 10 13 0 13 1 0 10 -13 9
-13 10 0 10 13 0 13 1 0 10 -13 9 -13 10 0 10 13 0 13 1 0 10 -13 9 -13 10 0
10 13 0 13 1 0 10 -13 9 -13 11 0 20 13 9 13 10 0 10 -13 0 -13 1 0 10 13 9
13 11 0 20 -13 9 -13 10 0 10 13 0 13 1 0 10 -13 9 -13 10 0 10 13 0 13 1 0
10 -13 9 -13 10 0 10 13 0 13 1 0 11 -12 9 -13 12 -1 16 11 5 11 7 0 14 -10 6
-11 9 -1 9 6 0 12 5 12 11 0 5 -4 8 -9 5 -14 -9 -7 22 9 37 10 9 11 9 6 0 -4
-7 -3 -13 3 -13 5 0 12 6 14 13 4 9 8 9 15 -2 9 -12 13 -12 26 -2 11 9 16 10
16 2 0 -6 5 -11 11 -11 5 0 7 6 3 13 -5 8 -2 8 9 -2 14 -11 17 -11 18 0 0 12
1 12 6 0 5 -11 7 -11 14 0 8 12 11 11 19 -1 9 -13 10 -13 10 0 0 13 1 13 10 0
9 -13 10 -13 10 0 0 13 1 13 10 0 9 -13 10 -13 10 0 0 13 1 13 10 0 9 -13 11
-13 20 0 9 13 10 13 10 0 0 -13 1 -13 10 0 9 13 11 13 19 1 8 -12 12 -12 25
-2 11 9 16 10 16 2 0 -6 5 -11 11 -11 5 0 7 6 3 13 -5 8 -2 8 9 -2 14 -11 17
-11 18 0 0 12 1 12 6 0 5 -11 7 -11 14 0 8 12 11 11 19 -1 9 -13 10 -13 10 0
0 13 1 13 10 0 9 -13 10 -13 10 0 0 13 1 13 10 0 9 -13 10 -13 10 0 0 13 1 13
10 0 9 -13 11 -13 20 0 9 13 10 13 10 0 0 -13 1 -13 11 0 9 12 12 13 16 1 5
-11 7 -11 14 0 7 12 9 11 9 -1 0 -13 1 -13 10 0 9 13 10 13 10 0 0 -13 1 -13
10 0 9 13 10 13 10 0 0 -13 1 -13 10 0 9 13 10 13 10 0 0 -13 1 -13 10 0 9 13
10 13 10 0 0 -13 1 -13 10 0 9 13 10 13 10 0 0 -13 1 -13 10 0 9 13 10 13 10
0 0 -13 1 -13 10 0 9 13 10 13 10 0 0 -13 1 -13 10 0 9 13 10 13 10 0 0 -13 1
-13 10 0 9 13 10 13 10 0 0 -13 1 -13 10 0 9 13 10 13 10 0 0 -13 1 -13 10 0
9 13 10 13 10 0 0 -13 1 -13 10 0 9 13 10 13 10 0 0 -13 1 -13 10 0 9 13 10
13 10 0 0 -13 1 -13 10 0 9 13 10 13 10 0 0 -13 1 -13 10 0 6 10 10 11 10 3 0
-7 5 -13 11 -13 5 0 8 4 5 8 -3 5 1 9 9 9 8 0 15 -4 15 -9 0 -4 5 -8 11 -8 5
0 7 6 3 13 -5 8 -2 8 9 -2 14 -11 17 -11 18 0 0 12 1 12 6 0 5 -11 7 -11 14 0
8 12 11 11 19 -1 9 -13 10 -13 10 0 0 13 1 13 10 0 9 -13 10 -13 10 0 0 13 1
13 10 0 9 -13 10 -13 10 0 0 13 1 13 10 0 9 -13 11 -13 20 0 9 13 10 13 10 0
0 -13 1 -13 10 0 9 13 11 13 19 1 8 -12 12 -12 25 -2 11 9 16 10 16 2 0 -6 5
-11 11 -11 5 0 8 4 5 8 -3 5 1 9 9 9 8 0 15 -4 15 -9 0 -4 5 -8 11 -8 5 0 8 4
5 8 -3 5 1 9 9 9 8 0 15 -4 15 -9 0 -4 5 -8 11 -8 5 0 7 6 3 13 -5 8 -2 8 9
-2 14 -11 17 -11 18 0 0 12 1 12 6 0 5 -11 7 -11 14 0 8 12 11 11 19 -1 9 -13
10 -13 10 0 0 13 1 13 10 0 9 -13 10 -13 10 0 0 13 1 13 10 0 9 -13 10 -13 10
0 0 13 1 13 10 0 9 -13 11 -13 20 0 9 13 10 13 10 0 0 -13 1 -13 10 0 9 13 11
13 19 1 8 -12 12 -12 24 -2 12 9 16 9 19 -1 4 -10 8 -10 21 1 14 11 17 11 18
0 0 -12 1 -12 6 0 5 11 7 11 14 0 7 -12 9 -11 9 1 0 13 1 13 10 0 9 -13 10
-13 10 0 0 13 1 13 10 0 9 -13 10 -13 10 0 0 13 1 13 10 0 9 -13 10 -13 10 0
0 13 1 13 10 0 9 -13 10 -13 10 0 0 13 1 13 10 0 9 -13 10 -13 10 0 0 13 1 13
10 0 9 -13 10 -13 10 0 0 13 1 13 10 0 9 -13 10 -13 10 0 0 13 1 13 10 0 9
-13 10 -13 10 0 0 13 1 13 10 0 9 -13 10 -13 10 0 0 13 1 13 10 0 9 -13 10
-13 10 0 0 13 1 13 10 0 9 -13 10 -13 10 0 0 13 1 13 10 0 9 -13 10 -13 10 0
0 13 1 13 10 0 9 -13 10 -13 10 0 0 13 1 13 10 0 9 -13 11 -13 20 0 9 13 10
13 10 0 0 -13 1 -13 10 0 9 13 11 13 20 0 9 -13 10 -13 10 0 0 13 1 13 10 0 9
-13 10 -13 10 0 0 13 1 13 10 0 9 -13 10 -13 10 0 0 13 1 13 10 0 9 -13 11
-13 20 0 9 13 10 13 10 0 0 -13 1 -13 10 0 9 13 11 13 19 1 8 -12 12 -12 25
-2 11 9 16 10 16 2 0 -6 5 -11 11 -11 5 0 7 6 3 13 -5 8 -2 8 9 -2 14 -11 17
-11 18 0 0 12 1 12 6 0 5 -11 7 -11 14 0 8 12 11 11 19 -1 9 -13 10 -13 10 0
0 13 1 13 10 0 9 -13 10 -13 10 0 0 13 1 13 10 0 9 -13 10 -13 10 0 0 13 1 13
10 0 9 -13 11 -13 20 0 9 13 10 13 10 0 0 -13 1 -13 10 0 9 13 11 13 19 1 8
-12 12 -12 25 -2 11 9 16 10 16 2 0 -6 5 -11 11 -11 5 0 7 6 3 13 -5 8 -2 8 9
-2 14 -11 17 -11 18 0 0 12 1 12 6 0 5 -11 7 -11 14 0 8 12 11 11 19 -1 9 -13
10 -13 10 0 0 13 1 13 10 0 9 -13 10 -13 10 0 0 13 1 13 10 0 9 -13 10 -13 10
0 0 13 1 13 10 0 9 -13 11 -13 20 0 9 13 10 13 10 0 0 -13 1 -13 11 0 9 12 12
13 16 1 5 -11 7 -11 14 0 7 12 9 11 9 -1 0 -13 1 -13 10 0 9 13 10 13 10 0 0
-13 1 -13 10 0 9 13 10 13 10 0 0 -13 1 -13 10 0 9 13 10 13 10 0 0 -13 1 -13
10 0 9 13 10 13 10 0 0 -13 1 -13 10 0 9 13 10 13 10 0 0 -13 1 -13 10 0 9 13
10 13 10 0 0 -13 1 -13 10 0 9 13 10 13 10 0 0 -13 1 -13 10 0 9 13 10 13 10
0 0 -13 1 -13 10 0 9 13 10 13 10 0 0 -13 1 -13 10 0 9 13 10 13 10 0 0 -13 1
-13 10 0 9 13 10 13 10 0 0 -13 1 -13 10 0 9 13 10 13 10 0 0 -13 1 -13 10 0
9 13 10 13 10 0 0 -13 1 -13 10 0 9 13 10 13 10 0 0 -13 1 -13 10 0 6 10 10
11 10 3 0 -7 5 -13 11 -13 5 0 8 4 5 8 -3 5 1 9 9 9 8 0 15 -4 15 -9 0 -4 5
-8 11 -8 5 0 7 6 3 13 -5 8 -2 8 9 -2 14 -11 17 -11 18 0 0 12 1 12 6 0 5 -11
7 -11 14 0 8 12 11 11 19 -1 9 -13 10 -13 10 0 0 13 1 13 10 0 9 -13 10 -13
10 0 0 13 1 13 10 0 9 -13 10 -13 10 0 0 13 1 13 10 0 9 -13 11 -13 20 0 9 13
10 13 10 0 0 -13 1 -13 10 0 9 13 11 13 19 1 8 -12 12 -12 25 -2 11 9 16 10
16 2 0 -6 5 -11 11 -11 5 0 8 4 5 8 -3 5 1 9 9 9 8 0 15 -4 15 -9 0 -4 5 -8
11 -8 5 0 8 4 5 8 -3 5 1 9 9 9 8 0 15 -4 15 -9 0 -4 5 -8 11 -8 5 0 7 6 3 13
-5 8 -2 8 9 -2 14 -11 17 -11 18 0 0 12 1 12 6 0 5 -11 7 -11 14 0 8 12 11 11
19 -1 9 -13 10 -13 10 0 0 13 1 13 10 0 9 -13 10 -13 10 0 0 13 1 13 10 0 9
-13 10 -13 10 0 0 13 1 13 10 0 9 -13 11 -13 20 0 9 13 10 13 10 0 0 -13 1
-13 10 0 9 13 11 13 19 1 8 -12 12 -12 24 -2 12 9 16 9 19 -1 4 -10 8 -10 21
1 14 11 17 11 18 0 0 -12 1 -12 6 0 5 11 7 11 14 0 7 -12 9 -11 9 1 0 13 1 13
10 0 9 -13 10 -13 10 0 0 13 1 13 10 0 9 -13 10 -13 10 0 0 13 1 13 10 0 9
-13 10 -13 10 0 0 13 1 13 10 0 9 -13 10 -13 10 0 0 13 1 13 10 0 9 -13 10
-13 10 0 0 13 1 13 10 0 9 -13 10 -13 10 0 0 13 1 13 10 0 9 -13 10 -13 10 0
0 13 1 13 10 0 9 -13 10 -13 10 0 0 13 1 13 10 0 9 -13 10 -13 10 0 0 13 1 13
10 0 9 -13 10 -13 10 0 0 13 1 13 10 0 9 -13 10 -13 10 0 0 13 1 13 10 0 9
-13 10 -13 10 0 0 13 1 13 10 0 9 -13 10 -13 10 0 0 13 1 13 10 0 9 -13 11
-13 20 0 9 13 10 13 10 0 0 -13 1 -13 10 0 9 13 11 13 20 0 9 -13 10 -13 10 0
0 13 1 13 10 0 9 -13 10 -13 10 0 0 13 1 13 10 0 9 -13 10 -13 10 0 0 13 1 13
10 0 9 -13 11 -13 20 0 9 13 10 13 10 0 0 -13 1 -13 10 0 9 13 11 13 19 1 8
-12 12 -12 25 -2 11 9 16 10 16 2 0 -6 5 -11 11 -11 5 0 7 6 3 13 -5 8 -2 8 9
-2 14 -11 17 -11 18 0 0 12 1 12 6 0 5 -11 7 -11 14 0 8 12 11 11 19 -1 9 -13
10 -13 10 0 0 13 1 13 10 0 9 -13 10 -13 10 0 0 13 1 13 10 0 9 -13 10 -13 10
0 0 13 1 13 10 0 9 -13 11 -13 20 0 9 13 10 13 10 0 0 -13 1 -13 10 0 9 13 11
13 19 1 8 -12 12 -12 25 -2 11 9 16 10 16 2 0 -6 5 -11 11 -11 5 0 7 6 3 13
-5 8 -2 8 9 -2 14 -11 17 -11 18 0 0 12 1 12 6 0 5 -11 7 -11 14 0 8 12 11 11
19 -1 9 -13 10 -13 10 0 0 13 1 13 10 0 9 -13 10 -13 10 0 0 13 1 13 10 0 9
-13 10 -13 10 0 0 13 1 13 10 0 9 -13 11 -13 20 0 9 13 10 13 10 0 0 -13 1
-13 11 0 9 12 12 13 16 1 5 -11 7 -11 14 0 7 12 9 11 9 -1 0 -13 1 -13 10 0 9
13 10 13 10 0 0 -13 1 -13 10 0 9 13 10 13 10 0 0 -13 1 -13 10 0 9 13 10 13
10 0 0 -13 1 -13 10 0 9 13 10 13 10 0 0 -13 1 -13 10 0 9 13 10 13 10 0 0
-13 1 -13 10 0 9 13 10 13 10 0 0 -13 1 -13 10 0 9 13 10 13 10 0 0 -13 1 -13
10 0 9 13 10 13 10 0 0 -13 1 -13 10 0 9 13 10 13 10 0 0 -13 1 -13 10 0 9 13
10 13 10 0 0 -13 1 -13 10 0 9 13 10 13 10 0 0 -13 1 -13 10 0 9 13 10 13 10
0 0 -13 1 -13 10 0 9 13 10 13 10 0 0 -13 1 -13 10 0 9 13 10 13 10 0 0 -13 1
-13 10 0 6 10 10 11 10 3 0 -7 5 -13 11 -13 5 0 8 4 5 8 -3 5 1 9 9 9 8 0 15
-4 15 -9 0 -4 5 -8 11 -8 5 0 7 6 3 13 -5 8 -2 8 9 -2 14 -11 17 -11 18 0 0
12 1 12 6 0 5 -11 7 -11 14 0 8 12 11 11 19 -1 9 -13 10 -13 10 0 0 13 1 13
10 0 9 -13 10 -13 10 0 0 13 1 13 10 0 9 -13 10 -13 10 0 0 13 1 13 10 0 9
-13 11 -13 20 0 9 13 10 13 10 0 0 -13 1 -13 10 0 9 13 11 13 19 1 8 -12 12
-12 25 -2 11 9 16 10 16 2 0 -6 5 -11 11 -11 5 0 8 4 5 8 -3 5 1 9 9 9 8 0 15
-4 15 -9 0 -4 5 -8 11 -8 5 0 8 4 5 8 -3 5 1 9 9 9 8 0 15 -4 15 -9 0 -4 5 -8
11 -8 5 0 7 6 3 13 -5 8 -2 8 9 -2 14 -11 17 -11 18 0 0 12 1 12 6 0 5 -11 7
-11 14 0 8 12 11 11 19 -1 9 -13 10 -13 10 0 0 13 1 13 10 0 9 -13 10 -13 10
0 0 13 1 13 10 0 9 -13 10 -13 10 0 0 13 1 13 10 0 9 -13 11 -13 20 0 9 13 10
13 10 0 0 -13 1 -13 10 0 9 13 11 13 19 1 8 -12 12 -12 24 -2 12 9 16 9 19 -1
4 -10 8 -10 21 1 14 11 17 11 18 0 0 -12 1 -12 6 0 5 11 7 11 14 0 7 -12 9
-11 9 1 0 13 1 13 10 0 9 -13 10 -13 10 0 0 13 1 13 10 0 9 -13 10 -13 10 0 0
13 1 13 10 0 9 -13 10 -13 10 0 0 13 1 13 10 0 9 -13 10 -13 10 0 0 13 1 13
10 0 9 -13 10 -13 10 0 0 13 1 13 10 0 9 -13 10 -13 10 0 0 13 1 13 10 0 9
-13 10 -13 10 0 0 13 1 13 10 0 9 -13 10 -13 10 0 0 13 1 13 10 0 9 -13 10
-13 10 0 0 13 1 13 10 0 9 -13 10 -13 10 0 0 13 1 13 10 0 9 -13 10 -13 10 0
0 13 1 13 10 0 9 -13 10 -13 10 0 0 13 1 13 10 0 9 -13 10 -13 10 0 0 13 1 13
10 0 9 -13 11 -13 20 0 9 13 10 13 10 0 0 -13 1 -13 10 0 9 13 11 13 20 0 9
-13 10 -13 10 0 0 13 1 13 10 0 9 -13 10 -13 10 0 0 13 1 13 10 0 9 -13 10
-13 10 0 0 13 1 13 10 0 9 -13 11 -13 20 0 9 13 10 13 10 0 0 -13 1 -13 10 0
9 13 11 13 19 1 8 -12 12 -12 25 -2 11 9 16 10 16 2 0 -6 5 -11 11 -11 5 0 7
6 3 13 -5 8 -2 8 9 -2 14 -11 17 -11 18 0 0 12 1 12 6 0 5 -11 7 -11 14 0 8
12 11 11 19 -1 9 -13 10 -13 10 0 0 13 1 13 10 0 9 -13 10 -13 10 0 0 13 1 13
10 0 9 -13 10 -13 10 0 0 13 1 13 10 0 9 -13 11 -13 20 0 9 13 10 13 10 0 0
-13 1 -13 10 0 9 13 11 13 19 1 8 -12 12 -12 25 -2 11 9 16 10 16 2 0 -6 5
-11 11 -11 5 0 7 6 3 13 -5 8 -2 8 9 -2 14 -11 17 -11 18 0 0 12 1 12 6 0 5
-11 7 -11 14 0 8 12 11 11 19 -1 9 -13 10 -13 10 0 0 13 1 13 10 0 9 -13 10
-13 10 0 0 13 1 13 10 0 9 -13 10 -13 10 0 0 13 1 13 10 0 9 -13 11 -13 20 0
9 13 10 13 10 0 0 -13 1 -13 11 0 9 12 12 13 16 1 5 -11 7 -11 14 0 7 12 9 11
9 -1 0 -13 1 -13 10 0 9 13 10 13 10 0 0 -13 1 -13 10 0 9 13 10 13 10 0 0
-13 1 -13 10 0 9 13 10 13 10 0 0 -13 1 -13 10 0 9 13 10 13 10 0 0 -13 1 -13
10 0 9 13 10 13 10 0 0 -13 1 -13 10 0 9 13 10 13 10 0 0 -13 1 -13 10 0 9 13
10 13 10 0 0 -13 1 -13 10 0 9 13 10 13 10 0 0 -13 1 -13 10 0 9 13 10 13 10
0 0 -13 1 -13 10 0 9 13 10 13 10 0 0 -13 1 -13 10 0 9 13 10 13 10 0 0 -13 1
-13 10 0 9 13 10 13 10 0 0 -13 1 -13 10 0 9 13 10 13 10 0 0 -13 1 -13 10 0
9 13 10 13 10 0 0 -13 1 -13 10 0 6 10 10 11 10 3 0 -7 5 -13 11 -13 5 0 8 4
5 8 -3 5 1 9 9 9 8 0 15 -4 15 -9 0 -4 5 -8 11 -8 5 0 7 6 3 13 -5 8 -2 8 9
-2 14 -11 17 -11 18 0 0 12 1 12 6 0 5 -11 7 -11 14 0 8 12 11 11 19 -1 9 -13
10 -13 10 0 0 13 1 13 10 0 9 -13 10 -13 10 0 0 13 1 13 10 0 9 -13 10 -13 10
0 0 13 1 13 10 0 9 -13 11 -13 20 0 9 13 10 13 10 0 0 -13 1 -13 10 0 9 13 11
13 19 1 8 -12 12 -12 25 -2 11 9 16 10 16 2 0 -6 5 -11 11 -11 5 0 8 4 5 8 -3
5 1 9 9 9 8 0 15 -4 15 -9 0 -4 5 -8 11 -8 5 0 8 4 5 8 -3 5 1 9 9 9 8 0 15
-4 15 -9 0 -4 5 -8 11 -8 5 0 7 6 3 13 -5 8 -2 8 9 -2 14 -11 17 -11 18 0 0
12 1 12 6 0 5 -11 7 -11 14 0 8 12 11 11 19 -1 9 -13 10 -13 10 0 0 13 1 13
10 0 9 -13 10 -13 10 0 0 13 1 13 10 0 9 -13 10 -13 10 0 0 13 1 13 10 0 9
-13 11 -13 20 0 9 13 10 13 10 0 0 -13 1 -13 10 0 9 13 11 13 19 1 8 -12 12
-12 25 -2 11 9 16 10 16 2 0 -6 5 -11 11 -11 5 0 7 6 3 13 -5 7 -2 7 10 -2 9
-8 16 -10 15 -5 -2 14 0 24 7 24 3 0 3 -4 -1 -9z m-7568 -11416 c0 -8 -4 -12
-9 -9 -5 3 -6 10 -3 15 9 13 12 11 12 -6z m7883 -75 c0 -5 -5 -10 -11 -10 -5
0 -7 5 -4 10 3 6 8 10 11 10 2 0 4 -4 4 -10z"/>
<path d="M2782 11242 c-18 -3 -22 -10 -22 -35 0 -18 1 -59 1 -92 0 -33 1 -81
2 -108 1 -26 -2 -47 -6 -47 -4 0 -3 -9 3 -20 6 -12 7 -20 1 -20 -6 0 -6 -11
-1 -29 4 -16 6 -32 3 -35 -5 -5 -5 -45 0 -169 1 -26 -2 -47 -6 -47 -4 0 -3 -9
3 -20 6 -12 7 -20 1 -20 -6 0 -6 -11 -1 -29 4 -16 6 -32 3 -35 -5 -5 -5 -45 0
-169 1 -26 -2 -47 -6 -47 -4 0 -3 -9 3 -20 6 -12 7 -20 1 -20 -6 0 -6 -11 -1
-29 4 -16 6 -32 3 -35 -5 -5 -5 -45 0 -169 1 -26 -2 -47 -6 -47 -4 0 -3 -9 3
-20 6 -12 7 -20 1 -20 -6 0 -6 -11 -1 -29 4 -16 6 -32 3 -35 -5 -5 -5 -45 0
-169 1 -26 -2 -47 -6 -47 -4 0 -3 -9 3 -20 6 -12 7 -20 1 -20 -6 0 -6 -11 -1
-29 4 -16 6 -32 3 -35 -3 -3 -5 -31 -3 -63 2 -66 3 -86 1 -125 -2 -63 -3 -84
-2 -98 1 -8 1 -26 0 -40 0 -14 0 -32 0 -40 1 -8 1 -26 0 -40 -1 -32 -1 -59 0
-90 1 -14 2 -61 2 -104 0 -44 2 -83 5 -88 3 -4 0 -8 -6 -8 -8 0 -8 -6 0 -20 6
-12 7 -20 1 -20 -6 0 -7 -11 -2 -27 4 -16 5 -39 1 -53 -3 -13 -3 -46 0 -72 4
-27 3 -48 -1 -48 -4 0 -4 -13 1 -29 4 -15 5 -33 1 -40 -4 -6 -5 -33 -1 -59 3
-27 3 -60 -1 -74 -4 -14 -3 -31 1 -38 4 -7 4 -25 0 -40 -4 -15 -4 -33 0 -40 4
-7 4 -25 0 -40 -4 -15 -4 -33 0 -40 4 -7 4 -24 0 -39 -4 -14 -5 -35 -4 -46 4
-22 4 -26 5 -139 0 -44 2 -83 5 -88 3 -4 0 -8 -6 -8 -8 0 -8 -6 0 -20 6 -12 7
-20 1 -20 -6 0 -7 -11 -2 -27 4 -16 5 -39 1 -53 -3 -13 -3 -46 0 -72 4 -27 3
-48 -1 -48 -4 0 -4 -13 1 -29 4 -15 5 -33 1 -40 -4 -6 -5 -33 -1 -59 3 -27 3
-60 -1 -74 -4 -14 -3 -31 1 -38 4 -7 4 -25 0 -40 -4 -15 -4 -33 0 -40 4 -7 4
-25 0 -40 -4 -15 -4 -33 0 -40 4 -7 4 -24 0 -39 -4 -14 -5 -35 -4 -46 4 -22 4
-26 5 -139 0 -44 2 -83 5 -88 3 -4 0 -8 -6 -8 -8 0 -8 -6 0 -20 6 -12 7 -20 1
-20 -6 0 -7 -11 -2 -27 4 -16 5 -39 1 -53 -3 -13 -3 -46 0 -72 4 -27 3 -48 -1
-48 -4 0 -4 -13 1 -29 4 -15 5 -33 1 -40 -4 -6 -5 -33 -1 -59 3 -27 3 -60 -1
-74 -4 -14 -3 -31 1 -38 4 -7 4 -25 0 -40 -4 -15 -4 -33 0 -40 4 -7 4 -25 0
-40 -4 -15 -4 -33 0 -40 4 -7 4 -24 0 -39 -4 -14 -5 -35 -4 -46 4 -22 4 -26 5
-139 0 -44 2 -83 5 -88 3 -4 0 -8 -6 -8 -8 0 -8 -6 0 -20 6 -12 7 -20 1 -20
-6 0 -7 -11 -2 -27 4 -16 5 -39 1 -53 -3 -13 -3 -46 0 -72 4 -27 3 -48 -1 -48
-4 0 -4 -13 1 -29 4 -15 5 -33 1 -40 -4 -6 -5 -33 -1 -59 3 -27 3 -60 -1 -74
-4 -14 -3 -31 1 -38 4 -7 4 -25 0 -40 -4 -15 -4 -33 0 -40 4 -7 4 -25 0 -40
-4 -15 -4 -33 0 -40 4 -7 4 -24 0 -39 -4 -14 -5 -35 -4 -46 4 -22 4 -26 5
-139 0 -44 2 -83 5 -88 3 -4 0 -8 -6 -8 -8 0 -8 -6 0 -20 6 -12 7 -20 1 -20
-6 0 -7 -11 -2 -27 4 -16 5 -39 1 -53 -3 -13 -3 -46 0 -72 4 -27 3 -48 -1 -48
-4 0 -4 -13 1 -29 4 -15 5 -33 1 -40 -4 -6 -5 -33 -1 -59 3 -27 3 -60 -1 -74
-4 -14 -3 -31 1 -38 4 -7 4 -25 0 -40 -4 -15 -4 -33 0 -40 4 -7 4 -25 0 -40
-4 -15 -4 -33 0 -40 4 -7 5 -24 1 -38 -4 -14 -4 -47 -1 -74 4 -26 3 -48 -2
-48 -5 0 -4 -9 2 -20 6 -12 7 -20 1 -20 -6 0 -6 -11 -1 -29 4 -16 6 -32 3 -35
-5 -5 -5 -45 0 -169 1 -26 -2 -47 -6 -47 -4 0 -3 -9 3 -20 6 -12 7 -20 1 -20
-6 0 -6 -11 -1 -29 4 -16 6 -32 3 -35 -5 -5 -5 -45 0 -169 1 -26 -2 -47 -6
-47 -4 0 -3 -9 3 -20 6 -12 7 -20 1 -20 -6 0 -6 -11 -1 -29 4 -16 6 -32 3 -35
-5 -5 -5 -45 0 -169 1 -26 -2 -47 -6 -47 -4 0 -3 -9 3 -20 6 -12 7 -20 1 -20
-6 0 -6 -11 -1 -29 4 -16 6 -32 3 -35 -5 -5 -5 -45 0 -169 1 -26 -2 -47 -6
-47 -4 0 -3 -9 3 -20 6 -12 7 -20 1 -20 -6 0 -6 -11 -1 -29 4 -16 6 -32 3 -35
-5 -5 -5 -45 0 -169 1 -26 -2 -47 -6 -47 -4 0 -3 -9 3 -20 6 -12 7 -20 1 -20
-6 0 -6 -11 -1 -29 4 -16 6 -32 3 -35 -5 -5 -5 -45 0 -169 1 -26 -2 -47 -6
-47 -4 0 -3 -9 3 -20 6 -12 7 -20 1 -20 -6 0 -6 -11 -1 -29 4 -16 6 -32 3 -35
-5 -5 -5 -45 0 -169 1 -26 -2 -47 -6 -47 -4 0 -3 -9 3 -20 6 -12 7 -20 1 -20
-6 0 -7 -11 -2 -27 4 -16 5 -39 1 -53 -3 -13 -3 -46 0 -72 4 -27 3 -48 -1 -48
-4 0 -4 -13 1 -29 4 -15 5 -33 1 -39 -3 -5 -4 -47 -1 -91 3 -45 1 -81 -3 -81
-4 0 -3 -9 3 -20 6 -12 7 -20 1 -20 -6 0 -7 -11 -2 -27 4 -16 5 -39 1 -53 -3
-13 -3 -46 0 -72 4 -27 3 -48 -1 -48 -4 0 -4 -13 1 -29 4 -15 5 -33 1 -40 -4
-6 -5 -33 -1 -59 3 -27 3 -60 -1 -74 -4 -14 -3 -31 1 -38 4 -7 4 -25 0 -40 -4
-15 -4 -33 0 -40 4 -7 4 -25 0 -40 -4 -15 -4 -33 0 -40 4 -7 4 -26 0 -41 -5
-16 -8 -29 -7 -30 1 0 10 -2 20 -4 11 -2 21 -6 24 -9 3 -3 13 -1 22 4 10 5 23
5 31 0 8 -5 21 -5 31 1 11 6 20 5 24 -1 4 -6 15 -6 30 0 15 6 25 6 25 0 0 -5
12 -5 30 0 17 5 30 5 30 0 0 -5 13 -5 30 0 17 5 30 5 30 0 0 -5 13 -5 30 0 17
5 30 5 30 1 0 -4 22 -5 50 -1 27 3 55 3 62 -1 6 -4 20 -3 29 2 11 6 20 5 24
-1 3 -5 15 -6 28 -1 12 5 34 5 49 0 16 -4 28 -4 28 1 0 5 13 5 30 0 17 -5 30
-5 30 0 0 5 13 5 30 0 17 -5 30 -5 30 0 0 5 13 5 30 0 18 -5 30 -5 30 0 0 6
10 6 24 0 13 -5 27 -6 30 -3 8 8 76 9 76 1 0 -4 14 -3 30 2 17 5 30 5 30 1 0
-4 27 -4 60 -1 33 3 60 3 60 -1 0 -4 14 -4 30 1 17 5 30 6 30 2 0 -8 68 -7 76
1 3 3 17 2 30 -3 14 -6 24 -6 24 0 0 5 12 5 30 0 17 -5 30 -5 30 0 0 5 13 5
30 0 17 -5 30 -5 30 0 0 5 13 5 30 0 17 -5 30 -5 30 0 0 5 12 5 28 1 15 -5 37
-5 49 0 13 5 25 4 28 -1 4 -7 13 -7 24 0 10 5 21 7 24 3 8 -8 304 -6 317 2 5
3 10 2 10 -3 0 -5 20 -6 45 -2 24 4 50 3 57 -1 6 -4 19 -4 28 1 9 5 22 5 30 0
8 -5 21 -5 30 0 9 5 22 5 30 0 8 -5 21 -5 30 0 9 5 22 5 30 0 8 -5 21 -5 30 0
9 5 22 5 30 0 8 -5 21 -5 30 0 9 5 22 5 30 0 8 -5 21 -5 30 0 9 5 22 5 30 0 8
-5 21 -5 30 0 9 5 22 5 30 0 8 -5 21 -5 30 0 9 5 22 5 30 0 8 -5 21 -5 31 0 9
5 19 7 22 3 8 -8 304 -6 317 2 5 3 10 2 10 -2 0 -5 25 -6 55 -3 30 3 55 3 55
-1 0 -4 14 -4 30 1 17 5 30 6 30 2 0 -8 68 -7 76 1 3 3 17 2 30 -3 14 -6 24
-6 24 0 0 5 12 5 30 0 17 -5 30 -5 30 0 0 5 13 5 30 0 17 -5 30 -5 30 0 0 5
13 5 30 0 17 -5 30 -5 30 0 0 5 12 5 28 1 15 -5 37 -5 49 0 13 5 25 4 28 -1 4
-6 13 -7 24 -1 9 5 23 6 30 2 7 -5 30 -5 51 -1 21 4 44 4 51 -1 7 -4 21 -3 30
2 11 6 20 5 24 -1 3 -5 15 -6 28 -1 12 5 34 5 49 0 16 -4 28 -4 28 1 0 5 13 5
30 0 17 -5 30 -5 30 0 0 5 13 5 30 0 17 -5 30 -5 30 0 0 5 13 5 30 0 18 -5 30
-5 30 0 0 6 10 6 24 0 13 -5 27 -6 30 -3 8 8 76 9 76 1 0 -4 14 -3 30 2 17 5
30 5 30 1 0 -4 22 -5 50 -1 27 3 55 3 62 -1 6 -4 20 -3 29 2 11 6 20 5 24 -1
3 -5 15 -6 28 -1 12 5 34 5 49 0 16 -4 28 -4 28 1 0 5 13 5 30 0 17 -5 30 -5
30 0 0 5 13 5 30 0 17 -5 30 -5 30 0 0 5 13 5 30 0 18 -5 30 -5 30 0 0 6 10 6
24 0 13 -5 27 -6 30 -3 8 8 76 9 76 1 0 -4 14 -3 30 2 17 5 30 5 30 1 0 -4 27
-4 60 -1 33 3 60 3 60 -1 0 -4 14 -4 30 1 17 5 30 6 30 2 0 -8 68 -7 76 1 3 3
17 2 30 -3 14 -6 24 -6 24 0 0 5 12 5 30 0 17 -5 30 -5 30 0 0 5 13 5 30 0 17
-5 30 -5 30 0 0 5 13 5 30 0 17 -5 30 -5 30 0 0 5 12 5 28 1 15 -5 37 -5 49 0
13 5 25 4 28 -1 4 -7 13 -7 24 0 10 5 21 7 24 3 8 -8 304 -6 317 2 5 3 10 2
10 -3 0 -5 20 -6 45 -2 24 4 50 3 57 -1 6 -4 19 -4 28 1 9 5 22 5 30 0 8 -5
21 -5 30 0 9 5 22 5 30 0 8 -5 21 -5 30 0 9 5 22 5 30 0 8 -5 21 -5 30 0 9 5
22 5 30 0 8 -5 21 -5 30 0 9 5 22 5 30 0 8 -5 21 -5 30 0 9 5 22 5 30 0 8 -5
21 -5 30 0 9 5 22 5 30 0 8 -5 21 -5 30 0 9 5 22 5 29 1 15 -10 64 -2 72 12 4
5 3 24 -1 43 -5 19 -4 37 1 40 5 3 7 9 5 13 -5 8 -6 30 -7 136 0 33 -1 81 -2
108 -1 26 2 47 7 47 5 0 3 6 -3 14 -8 9 -8 16 -2 20 5 4 6 18 2 34 -4 15 -5
38 -1 52 3 13 3 46 0 71 -3 26 -3 55 1 65 3 11 3 29 -2 42 -6 14 -5 22 2 22 8
0 8 4 0 14 -8 9 -8 16 -2 20 5 4 6 18 2 34 -4 15 -5 38 -1 52 3 13 3 46 0 72
-4 27 -3 48 1 48 4 0 4 13 -1 29 -4 16 -6 32 -3 35 3 3 5 36 4 73 -2 66 -2 80
0 106 0 6 0 37 0 67 0 30 -1 63 -1 73 0 9 0 25 0 35 0 9 0 41 0 70 0 30 -2 58
-6 63 -3 5 0 9 7 9 9 0 9 3 0 14 -8 9 -8 16 -2 20 5 4 6 18 2 34 -4 15 -5 38
-1 52 3 13 3 46 0 72 -4 28 -2 48 3 48 5 0 4 6 -2 14 -8 9 -8 16 -2 20 5 4 6
18 2 34 -4 15 -5 38 -1 52 4 14 5 34 4 45 -2 11 -4 29 -4 40 -1 30 -1 158 -1
175 1 8 1 44 0 80 0 36 0 72 0 80 1 8 1 44 0 80 0 65 0 79 2 103 0 6 0 37 0
67 0 30 -1 63 -1 73 0 9 0 25 0 35 0 9 0 41 0 70 0 30 -2 58 -6 63 -3 5 0 9 7
9 9 0 9 3 0 14 -8 9 -8 16 -2 20 5 4 6 18 2 34 -4 15 -5 38 -1 52 3 13 3 46 0
72 -4 28 -2 48 3 48 5 0 4 6 -2 14 -8 9 -8 16 -2 20 5 4 6 18 2 34 -4 15 -5
38 -1 52 4 14 5 34 4 45 -2 11 -4 29 -4 40 -1 30 -1 158 -1 175 1 8 1 44 0 80
0 36 0 72 0 80 1 8 1 44 0 80 0 65 0 79 2 103 0 6 0 37 0 67 0 30 -1 63 -1 73
0 9 0 25 0 35 0 9 0 41 0 70 0 30 -2 58 -6 63 -3 5 0 9 7 9 9 0 9 3 0 14 -8 9
-8 16 -2 20 5 4 6 18 2 34 -4 15 -5 38 -1 52 3 13 3 46 0 72 -4 28 -2 48 3 48
5 0 4 6 -2 14 -8 9 -8 16 -2 20 5 4 6 18 2 34 -4 15 -5 38 -1 52 4 14 5 34 4
45 -2 11 -4 29 -4 40 -1 30 -1 158 -1 175 1 8 1 44 0 80 0 36 0 72 0 80 1 8 1
44 0 80 0 65 0 79 2 103 0 6 0 37 0 67 0 30 -1 63 -1 73 0 9 0 25 0 35 0 9 0
41 0 70 0 30 -2 58 -6 63 -3 5 0 9 7 9 9 0 9 3 0 14 -8 9 -8 16 -2 20 5 4 6
18 2 34 -4 15 -5 38 -1 52 3 13 3 46 0 72 -4 28 -2 48 3 48 5 0 4 6 -2 14 -8
9 -8 16 -2 20 5 4 6 18 2 34 -4 15 -5 38 -1 52 4 14 5 34 4 45 -2 11 -4 29 -4
40 -1 30 -1 158 -1 175 1 8 1 44 0 80 0 36 0 72 0 80 1 8 1 44 0 80 0 65 0 79
2 103 0 6 0 37 0 67 0 30 -1 63 -1 73 0 9 0 25 0 35 0 9 0 41 0 70 0 30 -2 58
-6 63 -3 5 0 9 7 9 9 0 9 3 0 14 -8 9 -8 16 -2 20 5 4 6 18 2 34 -4 15 -5 38
-1 52 3 13 3 46 0 72 -4 28 -2 48 3 48 5 0 4 6 -2 14 -8 9 -8 16 -2 20 5 4 6
18 2 34 -4 15 -5 38 -1 52 4 14 5 34 4 45 -2 11 -4 29 -4 40 -1 30 -1 158 -1
175 1 8 1 44 0 80 0 36 0 72 0 80 1 8 1 44 0 80 0 65 0 79 2 103 0 6 0 37 0
67 0 30 -1 63 -1 73 0 9 0 25 0 35 0 9 0 41 0 70 0 30 -2 58 -6 63 -3 5 0 9 7
9 9 0 9 3 0 14 -8 9 -8 16 -2 20 5 4 6 18 2 34 -4 15 -5 38 -1 52 3 13 3 46 0
72 -4 28 -2 48 3 48 5 0 4 6 -2 14 -8 9 -8 16 -2 20 5 4 6 18 2 34 -4 15 -5
38 -1 52 4 14 5 34 4 45 -2 11 -4 29 -4 40 -1 30 -1 158 -1 175 1 8 1 44 0 80
0 36 0 72 0 80 1 8 1 44 0 80 0 65 0 79 2 103 0 6 0 37 0 67 0 30 -1 63 -1 73
0 9 0 25 0 35 0 9 0 41 0 70 0 30 -2 58 -6 63 -3 5 0 9 7 9 9 0 9 3 0 14 -8 9
-8 16 -2 20 5 4 6 18 2 34 -4 15 -5 38 -1 52 3 13 3 46 0 72 -4 28 -2 48 3 48
5 0 4 6 -2 14 -8 9 -8 16 -2 20 5 4 6 18 2 34 -4 15 -5 38 -1 52 4 14 5 34 4
45 -2 11 -4 29 -4 40 -1 30 -1 158 -1 175 1 8 1 44 0 80 0 36 0 72 0 80 1 8 1
44 0 80 0 65 0 79 2 103 0 6 0 37 0 67 0 30 -1 63 -1 73 0 9 0 24 0 32 -1 8 0
31 1 51 1 45 -10 56 -55 55 -20 -1 -44 -1 -53 -1 -10 0 -29 0 -43 -1 -14 0
-32 0 -40 0 -8 1 -26 1 -40 0 -32 -1 -59 -1 -90 0 -14 1 -61 2 -104 2 -44 0
-83 2 -88 5 -4 3 -8 0 -8 -6 0 -8 -6 -8 -20 0 -12 6 -20 7 -20 1 0 -6 -11 -7
-27 -2 -16 4 -39 5 -53 1 -13 -3 -46 -3 -72 0 -27 4 -48 3 -48 -1 0 -4 -13 -4
-29 1 -16 4 -32 6 -35 3 -3 -3 -36 -5 -73 -4 -38 1 -75 2 -83 2 -71 -2 -165 1
-172 5 -4 3 -8 0 -8 -6 0 -8 -6 -8 -20 0 -12 6 -20 7 -20 1 0 -6 -11 -7 -27
-2 -16 4 -39 5 -53 1 -13 -3 -46 -3 -72 0 -27 4 -48 3 -48 -1 0 -4 -13 -4 -29
1 -15 4 -33 5 -40 1 -6 -4 -33 -5 -59 -1 -27 3 -60 3 -74 -1 -14 -4 -31 -3
-38 1 -7 4 -25 4 -40 0 -15 -4 -33 -4 -40 0 -7 4 -25 4 -40 0 -15 -4 -33 -4
-40 0 -7 4 -25 4 -40 0 -15 -4 -33 -4 -40 0 -7 4 -25 4 -40 0 -15 -4 -33 -4
-40 0 -7 4 -25 4 -40 0 -15 -4 -33 -4 -40 0 -7 4 -25 4 -40 0 -15 -4 -33 -4
-40 0 -7 4 -24 5 -38 1 -14 -4 -47 -4 -74 -1 -26 4 -48 3 -48 -2 0 -5 -9 -4
-20 2 -12 6 -20 7 -20 1 0 -6 -11 -7 -27 -2 -16 4 -39 5 -53 1 -13 -3 -46 -3
-72 0 -27 4 -48 3 -48 -1 0 -4 -13 -4 -29 1 -15 4 -33 5 -39 1 -5 -3 -47 -4
-91 -1 -45 3 -81 1 -81 -3 0 -4 -9 -3 -20 3 -12 6 -20 7 -20 1 0 -6 -11 -7
-27 -2 -16 4 -39 5 -53 1 -13 -3 -46 -3 -72 0 -27 4 -48 3 -48 -1 0 -4 -13 -4
-29 1 -15 4 -33 5 -39 1 -5 -3 -47 -4 -91 -1 -45 3 -81 1 -81 -3 0 -4 -9 -3
-20 3 -12 6 -20 7 -20 1 0 -6 -11 -6 -29 -1 -16 4 -32 6 -35 3 -3 -3 -31 -5
-63 -3 -66 2 -86 3 -125 1 -63 -2 -84 -3 -98 -2 -8 1 -26 1 -40 0 -14 0 -32 0
-40 0 -8 1 -26 1 -40 0 -14 0 -32 0 -40 0 -8 1 -26 1 -40 0 -14 0 -32 0 -40 0
-8 1 -26 1 -40 0 -14 0 -32 0 -40 0 -8 1 -26 1 -40 0 -14 0 -32 0 -40 0 -8 1
-26 1 -40 0 -32 -1 -59 -1 -90 0 -14 1 -61 2 -104 2 -44 0 -83 2 -88 5 -4 3
-8 0 -8 -6 0 -8 -6 -8 -20 0 -12 6 -20 7 -20 1 0 -6 -11 -7 -27 -2 -16 4 -39
5 -53 1 -13 -3 -46 -3 -72 0 -27 4 -48 3 -48 -1 0 -4 -13 -4 -29 1 -16 4 -32
6 -35 3 -3 -3 -36 -5 -73 -4 -38 1 -75 2 -83 2 -71 -2 -165 1 -172 5 -4 3 -8
0 -8 -6 0 -8 -6 -8 -20 0 -12 6 -20 7 -20 1 0 -6 -11 -7 -27 -2 -16 4 -39 5
-53 1 -13 -3 -46 -3 -72 0 -27 4 -48 3 -48 -1 0 -4 -13 -4 -29 1 -15 4 -33 5
-40 1 -6 -4 -33 -5 -59 -1 -27 3 -60 3 -74 -1 -14 -4 -31 -3 -38 1 -7 4 -25 4
-40 0 -15 -4 -33 -4 -40 0 -7 4 -25 4 -40 0 -15 -4 -33 -4 -40 0 -7 4 -25 4
-40 0 -15 -4 -33 -4 -40 0 -7 4 -25 4 -40 0 -15 -4 -33 -4 -40 0 -7 4 -25 4
-40 0 -15 -4 -33 -4 -40 0 -7 4 -25 4 -40 0 -15 -4 -33 -4 -40 0 -7 4 -24 5
-38 1 -14 -4 -47 -4 -74 -1 -26 4 -48 3 -48 -2 0 -5 -9 -4 -20 2 -12 6 -20 7
-20 1 0 -6 -11 -7 -27 -2 -16 4 -39 5 -53 1 -13 -3 -46 -3 -71 0 -26 3 -55 3
-65 -1 -11 -3 -28 -3 -39 0 -11 4 -30 5 -43 3z m5326 -4644 c-2 -6 5 -14 14
-16 13 -2 16 1 12 15 -5 17 -5 17 6 0 11 -17 13 -17 37 -2 14 10 22 12 19 6
-4 -6 -2 -11 3 -11 6 0 11 6 12 13 0 9 2 9 6 -1 2 -6 10 -9 16 -5 19 12 77 12
70 -1 -4 -6 1 -5 10 3 15 12 17 11 17 -2 0 -9 5 -19 11 -23 8 -4 9 1 4 17 -4
17 -3 20 3 10 6 -8 15 -10 23 -5 19 12 40 14 34 4 -3 -5 8 -16 25 -25 17 -9
28 -20 26 -24 -3 -5 6 -7 21 -5 14 1 30 9 34 16 5 7 9 8 9 3 0 -6 -6 -17 -12
-24 -11 -11 -8 -13 15 -9 20 4 27 2 23 -8 -7 -18 16 -35 34 -24 18 12 40 13
25 2 -5 -4 -11 -13 -13 -21 -2 -11 0 -12 11 -3 11 10 17 9 27 -3 7 -8 17 -12
23 -8 5 3 7 1 3 -5 -3 -5 0 -13 6 -16 7 -3 2 -3 -12 0 -22 4 -23 4 -7 -6 10
-7 25 -9 32 -6 8 3 14 2 13 -2 -1 -4 5 -21 15 -38 9 -17 13 -35 9 -39 -4 -5
-1 -5 6 -1 7 4 9 13 5 19 -4 7 -1 7 9 -1 9 -8 14 -20 11 -28 -3 -9 0 -14 7
-12 7 2 14 -7 16 -20 3 -16 0 -21 -8 -16 -7 4 -8 3 -4 -5 4 -6 12 -8 18 -5 6
4 8 -1 3 -15 -4 -13 -2 -21 5 -21 6 0 8 5 5 10 -3 6 -2 10 2 10 5 0 14 -10 22
-22 13 -21 13 -22 -2 -10 -10 9 -17 10 -22 2 -3 -5 -1 -10 5 -10 6 0 8 -6 4
-12 -4 -7 -3 -10 1 -5 5 4 15 -7 22 -24 8 -20 17 -28 25 -23 9 6 9 3 -1 -9
-11 -14 -11 -17 0 -17 8 0 6 -6 -7 -16 -10 -8 -13 -13 -6 -9 6 3 12 2 12 -2 0
-5 -6 -15 -12 -22 -11 -10 -10 -11 2 -6 11 4 16 -2 16 -25 1 -16 -2 -28 -6
-25 -3 2 -7 -2 -7 -10 0 -8 5 -11 11 -8 6 4 5 -1 -3 -10 -7 -9 -10 -17 -5 -17
5 0 2 -5 -6 -10 -13 -8 -12 -10 4 -10 15 0 16 -3 6 -15 -6 -8 -9 -19 -5 -25 3
-5 1 -10 -5 -10 -7 0 -8 -6 0 -19 7 -14 7 -22 -2 -27 -6 -4 -8 -3 -4 4 3 6 1
14 -6 18 -7 4 -10 4 -6 -1 4 -4 3 -17 -3 -28 -8 -14 -8 -18 0 -13 6 4 11 3 11
-3 0 -5 -5 -13 -11 -16 -6 -4 -8 -14 -4 -22 4 -13 3 -14 -9 -4 -12 10 -14 9
-9 -8 3 -12 10 -18 17 -14 6 4 5 -1 -2 -9 -8 -9 -19 -15 -26 -12 -8 3 -12 -4
-12 -18 1 -13 -4 -22 -11 -21 -6 1 -14 -4 -17 -13 -3 -8 -2 -12 4 -9 6 3 10 2
10 -3 0 -17 -13 -22 -27 -10 -11 9 -12 7 -7 -7 5 -11 3 -16 -2 -12 -5 3 -10
-3 -10 -14 0 -19 1 -19 13 -3 7 10 13 13 13 7 0 -17 -28 -35 -42 -27 -9 6 -9
3 1 -10 8 -9 10 -16 5 -15 -27 5 -46 -2 -41 -15 3 -8 -4 -22 -15 -33 -12 -10
-18 -13 -15 -7 7 12 -21 29 -31 19 -3 -3 0 -5 6 -5 7 0 12 -5 12 -11 0 -6 -7
-8 -16 -5 -8 3 -12 2 -9 -4 3 -6 -1 -13 -9 -16 -9 -3 -14 -10 -11 -14 3 -5 0
-12 -6 -16 -7 -4 -9 -3 -5 4 3 6 2 13 -4 17 -5 3 -10 1 -10 -5 0 -6 -4 -9 -9
-5 -5 3 -13 0 -17 -6 -4 -8 -3 -9 4 -5 7 4 12 2 12 -3 0 -6 -7 -11 -16 -11 -9
0 -12 -5 -8 -12 4 -6 3 -8 -4 -4 -6 3 -13 2 -17 -3 -3 -6 -12 -8 -19 -5 -8 3
-17 1 -20 -5 -4 -6 -14 -7 -24 -4 -15 6 -16 5 -2 -13 14 -18 14 -18 -2 -5 -10
7 -15 17 -12 22 3 5 0 9 -5 9 -6 0 -11 -10 -11 -22 -1 -21 -2 -21 -11 -5 -11
19 -29 23 -29 6 0 -5 5 -7 12 -3 7 4 8 3 4 -5 -6 -8 -12 -9 -20 -2 -7 6 -16 8
-19 4 -4 -3 -13 0 -21 6 -11 9 -16 9 -22 0 -5 -8 -3 -10 7 -4 8 5 10 4 6 0
-11 -13 -38 -15 -31 -3 5 7 2 8 -7 2 -23 -14 -61 -13 -55 3 7 18 -4 16 -21 -4
-8 -10 -12 -13 -9 -6 4 7 -1 11 -14 10 -11 -1 -20 -5 -20 -11 0 -5 -9 1 -19
13 -11 13 -28 24 -38 26 -10 1 -17 8 -15 14 2 9 -3 9 -17 2 -10 -6 -21 -7 -25
-4 -3 3 -6 0 -6 -7 0 -7 -3 -10 -6 -7 -4 4 -1 14 7 23 12 15 12 16 -8 10 -13
-4 -27 -1 -37 9 -9 9 -21 13 -28 9 -8 -5 -8 -1 2 12 8 10 10 16 6 12 -11 -10
-38 11 -30 23 3 5 0 9 -5 9 -14 0 -14 -17 -1 -25 6 -3 10 -12 9 -18 0 -9 -2
-8 -6 1 -2 6 -10 9 -15 6 -7 -5 -8 -2 -3 6 6 10 4 12 -8 7 -10 -4 -16 -2 -14
6 1 7 -4 11 -11 9 -8 -1 -11 2 -7 8 6 9 -7 14 -27 11 -5 0 -8 4 -8 9 0 16 15
12 44 -11 14 -11 26 -16 26 -11 0 5 -11 15 -25 22 -21 11 -23 16 -12 29 11 14
10 14 -6 2 -20 -16 -26 -13 -32 19 -3 13 -10 28 -16 34 -8 8 -8 5 0 -11 9 -18
9 -23 -1 -23 -8 0 -15 12 -16 27 -1 15 -8 30 -15 35 -6 4 -8 8 -3 8 5 0 3 7
-4 15 -7 8 -18 15 -24 15 -6 0 -3 -7 7 -14 15 -12 15 -14 2 -19 -8 -4 -14 -3
-14 1 1 4 1 9 -1 12 -9 23 -8 55 1 66 8 10 8 14 0 14 -6 0 -11 -4 -11 -10 0
-5 -4 -10 -10 -10 -6 0 -9 6 -8 13 2 6 -3 11 -10 9 -8 -1 -11 2 -7 8 3 5 13
10 21 10 8 0 14 4 14 9 0 6 -9 8 -20 6 -12 -2 -18 0 -14 6 3 5 0 16 -6 24 -7
8 -9 15 -4 15 5 0 2 5 -6 11 -12 9 -11 10 6 6 13 -3 21 1 21 9 0 7 -5 10 -10
7 -6 -4 -8 0 -4 10 3 9 1 19 -5 23 -6 4 -8 3 -4 -4 3 -6 2 -13 -2 -16 -10 -6
-9 40 1 50 4 4 1 14 -6 22 -9 13 -9 14 1 8 6 -4 12 -2 12 3 0 6 -6 11 -12 11
-9 0 -8 4 2 10 8 5 11 10 6 10 -5 0 -1 10 10 22 12 13 13 18 4 13 -8 -5 -22
-10 -30 -12 -13 -1 -13 0 1 10 29 22 54 103 37 124 -5 7 -5 14 2 18 6 3 8 11
4 16 -3 6 3 13 15 16 11 3 18 9 16 14 -3 4 -13 5 -23 2 -9 -3 -14 -2 -9 2 4 5
17 9 30 10 12 1 22 7 22 12 0 6 3 15 7 19 4 4 3 13 -3 21 -7 8 -8 13 -1 13 5
0 17 -10 26 -22 15 -22 15 -22 4 6 -10 23 -10 30 0 34 7 2 10 8 6 13 -3 5 0 9
6 9 6 0 10 8 8 18 -2 13 4 17 29 17 26 0 30 3 22 16 -6 12 -4 21 6 29 8 7 15
10 15 6 0 -3 9 2 19 11 11 9 17 21 14 26 -3 6 -1 7 6 3 6 -4 9 -11 6 -16 -3
-5 -1 -11 4 -14 5 -4 8 5 6 19 -2 20 0 23 11 14 11 -9 14 -8 14 1 0 10 3 10
14 1 11 -9 16 -9 22 0 4 8 3 9 -4 5 -17 -10 -15 3 3 20 14 14 19 11 16 -8 -2
-13 6 -9 20 9 12 14 12 16 -1 9 -8 -4 -6 0 4 8 17 14 22 14 41 2 18 -12 22
-12 22 -1 0 8 -4 12 -8 10 -6 -4 -6 13 0 33 3 8 11 0 9 -10z m386 -40 c-3 -4
-11 -5 -19 -1 -21 7 -19 12 4 10 11 0 18 -5 15 -9z m80 -49 c-3 -5 -10 -7 -15
-3 -5 3 -7 10 -3 15 3 5 10 7 15 3 5 -3 7 -10 3 -15z m-789 -118 c3 -5 2 -12
-3 -15 -5 -3 -9 1 -9 9 0 17 3 19 12 6z m-15 -65 c0 -3 -4 -8 -10 -11 -5 -3
-10 -1 -10 4 0 6 5 11 10 11 6 0 10 -2 10 -4z m1080 -122 c0 -8 -19 -13 -24
-6 -3 5 1 9 9 9 8 0 15 -2 15 -3z m-1146 -26 c-3 -13 -6 -28 -8 -35 -1 -7 -6
-16 -11 -20 -4 -4 -5 -2 -1 5 4 7 2 12 -6 12 -10 0 -9 3 1 9 13 8 13 12 0 27
-8 10 -9 15 -2 11 6 -4 14 -3 18 3 10 17 14 11 9 -12z m1136 -354 c0 -8 -19
-13 -24 -6 -3 5 1 9 9 9 8 0 15 -2 15 -3z m-1061 -142 c-1 -15 -2 -15 -6 1 -2
9 -9 14 -15 11 -7 -4 -8 -2 -4 5 10 15 26 4 25 -17z m276 -212 c-3 -5 -12 -10
-18 -10 -7 0 -6 4 3 10 19 12 23 12 15 0z m44 -23 c0 -9 -2 -8 -6 1 -2 6 -10
9 -15 6 -7 -4 -8 -2 -4 5 9 13 26 5 25 -12z"/>
<path d="M8377 6593 c-12 -12 -7 -25 7 -20 7 3 20 0 27 -6 7 -7 5 -2 -5 11
-22 25 -20 24 -29 15z"/>
<path d="M7915 6480 c-3 -5 -1 -10 4 -10 6 0 11 5 11 10 0 6 -2 10 -4 10 -3 0
-8 -4 -11 -10z"/>
<path d="M8610 6470 c0 -5 5 -10 11 -10 5 0 7 5 4 10 -3 6 -8 10 -11 10 -2 0
-4 -4 -4 -10z"/>
<path d="M7875 6460 c-3 -5 -1 -10 4 -10 6 0 11 5 11 10 0 6 -2 10 -4 10 -3 0
-8 -4 -11 -10z"/>
<path d="M7826 6407 c3 -10 9 -15 12 -12 3 3 0 11 -7 18 -10 9 -11 8 -5 -6z"/>
<path d="M8676 6407 c3 -10 9 -15 12 -12 3 3 0 11 -7 18 -10 9 -11 8 -5 -6z"/>
<path d="M8715 6329 c-4 -6 -5 -12 -2 -15 2 -3 7 2 10 11 7 17 1 20 -8 4z"/>
<path d="M8740 6320 c-9 -6 -10 -10 -3 -10 6 0 15 5 18 10 8 12 4 12 -15 0z"/>
<path d="M7725 6240 c3 -5 8 -10 11 -10 2 0 4 5 4 10 0 6 -5 10 -11 10 -5 0
-7 -4 -4 -10z"/>
<path d="M8801 6175 c9 -11 14 -26 12 -32 -3 -7 -1 -13 5 -13 16 0 9 30 -12
47 -21 18 -21 18 -5 -2z"/>
<path d="M8820 6060 c-9 -6 -10 -10 -3 -10 6 0 15 5 18 10 8 12 4 12 -15 0z"/>
<path d="M7690 5886 c0 -2 7 -9 15 -16 13 -11 14 -10 9 4 -5 14 -24 23 -24 12z"/>
<path d="M7745 5770 c-3 -6 1 -7 9 -4 18 7 21 14 7 14 -6 0 -13 -4 -16 -10z"/>
<path d="M8626 5578 c3 -5 10 -6 15 -3 13 9 11 12 -6 12 -8 0 -12 -4 -9 -9z"/>
<path d="M8486 5495 c-3 -9 -11 -13 -17 -9 -8 5 -9 3 -4 -5 6 -10 11 -9 23 3
9 8 13 18 10 21 -3 3 -8 -1 -12 -10z"/>
<path d="M8424 5480 c2 -16 20 -14 24 2 3 10 2 10 -6 -1 -7 -9 -11 -10 -15 -2
-4 7 -5 8 -3 1z"/>
<path d="M8125 5460 c3 -5 8 -10 11 -10 2 0 4 5 4 10 0 6 -5 10 -11 10 -5 0
-7 -4 -4 -10z"/>
</g>
</svg>
